<svg width="132" height="30" viewBox="0 0 132 30" fill="none" xmlns="http://www.w3.org/2000/svg">
<path fill-rule="evenodd" clip-rule="evenodd" d="M29.9466 0H0.502441V29.6331H29.946V19.2891H25.0596C23.3752 23.0626 19.5839 25.6908 15.2451 25.6908C9.26358 25.6908 4.41955 20.7737 4.41955 14.7958C4.41955 8.81793 9.26358 3.94283 15.2451 3.94283C19.668 3.94283 23.4593 6.65623 25.1444 10.5138H29.9466V0ZM58.461 19.2885C56.7343 23.0619 52.9851 25.69 48.6047 25.6903C42.7914 25.6903 38.0316 21.027 37.821 15.219H63.3474V0H33.9032V29.6324H63.3474V19.2885H58.461ZM58.8384 11.5734H38.2824C39.5881 6.69828 43.9264 3.94288 48.6022 3.94288C53.2779 3.94288 57.3222 6.5284 58.8384 11.5734ZM126.929 14.7952C126.929 20.8152 122.126 25.6903 116.145 25.6903C110.205 25.6903 105.361 20.773 105.361 14.7952C105.361 8.81734 110.164 3.94223 116.145 3.94223C122.126 3.94223 126.929 8.77531 126.929 14.7952ZM130.888 0H101.444V29.6331H130.888V0ZM92.8761 19.2885H97.7625V29.6324H67.2655V0H72.236V14.7952C72.236 21.4088 77.1224 25.6482 82.9351 25.6482C87.4422 25.6482 91.4016 23.1887 92.8761 19.2885Z" fill="black"/>
</svg>
