<svg width="193" height="60" viewBox="0 0 193 60" fill="none" xmlns="http://www.w3.org/2000/svg">
<path d="M30.1031 7.5L49.4994 18.7305L30.1031 30.273L10.75 18.7133L30.1031 7.5Z" stroke="url(#paint0_linear_1973_151)" stroke-width="2" stroke-miterlimit="10" stroke-linejoin="round"/>
<path d="M30.1246 52.5005L49.5855 41.2527L49.4994 18.731L30.103 30.2735L30.1246 52.5005Z" stroke="url(#paint1_linear_1973_151)" stroke-width="2" stroke-miterlimit="10" stroke-linejoin="round"/>
<path d="M10.75 41.2956V18.7134L30.1031 30.2731L30.1248 52.5001L10.75 41.2956Z" stroke="url(#paint2_linear_1973_151)" stroke-width="2" stroke-miterlimit="10" stroke-linejoin="round"/>
<g style="mix-blend-mode:soft-light">
<path d="M49.4994 18.7305L30.1032 7.5L10.75 18.7133M49.4994 18.7305L30.1032 30.273M49.4994 18.7305L49.5856 41.2522L30.1248 52.5M10.75 18.7133L30.1032 30.273M10.75 18.7133V41.2955L30.1248 52.5M30.1032 30.273L30.1248 52.5" stroke="#49FFDE" stroke-opacity="0.56" stroke-width="2" stroke-miterlimit="10" stroke-linejoin="round"/>
</g>
<path d="M80.3375 24.0116C79.5171 24.0116 78.7827 24.1601 78.1344 24.457C77.4938 24.7538 76.9508 25.1836 76.5054 25.7461C76.0601 26.3008 75.7203 26.9765 75.4859 27.7733C75.2516 28.5625 75.1344 29.453 75.1344 30.4453C75.1344 31.7734 75.3219 32.9179 75.6969 33.8788C76.0719 34.832 76.6422 35.5663 77.4078 36.082C78.1734 36.5897 79.1421 36.8437 80.3141 36.8437C81.0407 36.8437 81.7476 36.7733 82.4351 36.6328C83.1227 36.4921 83.8335 36.3007 84.5679 36.0586V38.4491C83.8727 38.7226 83.1695 38.9218 82.4586 39.0467C81.7476 39.1718 80.9273 39.2342 79.9976 39.2342C78.2477 39.2342 76.7945 38.8711 75.6383 38.1445C74.4899 37.4179 73.6304 36.3944 73.0601 35.0741C72.4976 33.7538 72.2163 32.207 72.2163 30.4336C72.2163 29.1367 72.396 27.9491 72.7554 26.8711C73.1148 25.7929 73.6383 24.8632 74.3258 24.082C75.0132 23.2928 75.8609 22.6874 76.8687 22.2656C77.8844 21.8359 79.0445 21.6211 80.3492 21.6211C81.2085 21.6211 82.0523 21.7187 82.8804 21.914C83.7164 22.1015 84.4898 22.3711 85.2008 22.7225L84.2163 25.0429C83.6226 24.7616 83.0015 24.5195 82.3532 24.3163C81.7047 24.1132 81.0327 24.0116 80.3375 24.0116ZM86.9694 26.0273H89.9694L92.6295 33.4336C92.7467 33.7694 92.8521 34.1015 92.9459 34.4296C93.0474 34.75 93.1334 35.0663 93.2037 35.3788C93.2819 35.6914 93.3444 36.0038 93.3912 36.3163H93.4616C93.5397 35.9101 93.6491 35.4569 93.7896 34.957C93.9381 34.4491 94.1022 33.9413 94.2819 33.4336L96.8366 26.0273H99.8013L94.235 40.7812C93.9147 41.6249 93.5201 42.3437 93.0513 42.9374C92.5904 43.5389 92.0436 43.9921 91.4108 44.2967C90.7779 44.6093 90.0552 44.7656 89.2428 44.7656C88.8522 44.7656 88.5123 44.7421 88.2233 44.6953C87.9342 44.6561 87.6881 44.6132 87.485 44.5663V42.3632C87.6491 42.4022 87.8561 42.4375 88.1061 42.4687C88.356 42.4999 88.6139 42.5156 88.8795 42.5156C89.3717 42.5156 89.7975 42.4178 90.1569 42.2225C90.5162 42.0272 90.821 41.7499 91.0709 41.3906C91.3209 41.039 91.5279 40.6366 91.692 40.1836L92.1491 38.9648L86.9694 26.0273ZM105.484 20.7656V25.16C105.484 25.6679 105.468 26.1679 105.437 26.66C105.414 27.1445 105.39 27.5234 105.367 27.7967H105.484C105.836 27.2342 106.324 26.7616 106.949 26.3788C107.582 25.9882 108.39 25.7929 109.375 25.7929C110.914 25.7929 112.152 26.3593 113.09 27.4921C114.027 28.6171 114.496 30.2851 114.496 32.4961C114.496 33.9647 114.281 35.1991 113.851 36.1991C113.421 37.1992 112.816 37.957 112.035 38.4725C111.261 38.9804 110.351 39.2342 109.304 39.2342C108.32 39.2342 107.523 39.0547 106.914 38.6953C106.312 38.3281 105.84 37.9022 105.496 37.4179H105.297L104.793 38.9999H102.73V20.7656H105.484ZM108.648 28.0312C107.867 28.0312 107.246 28.1875 106.785 28.4999C106.332 28.8124 106.004 29.2811 105.8 29.9062C105.597 30.5234 105.492 31.3085 105.484 32.2616V32.5078C105.484 33.953 105.711 35.0585 106.164 35.8241C106.625 36.5897 107.461 36.9725 108.672 36.9725C109.632 36.9725 110.371 36.5858 110.886 35.8124C111.402 35.0312 111.66 33.914 111.66 32.4608C111.66 30.9922 111.402 29.8867 110.886 29.1445C110.379 28.4023 109.632 28.0312 108.648 28.0312ZM123.811 25.7812C124.967 25.7812 125.96 26.0195 126.788 26.4961C127.616 26.9726 128.253 27.6484 128.698 28.5233C129.143 29.3984 129.366 30.4453 129.366 31.664V33.1406H120.706C120.737 34.3984 121.073 35.3671 121.714 36.0467C122.362 36.7265 123.268 37.0663 124.432 37.0663C125.26 37.0663 126.003 36.9883 126.659 36.832C127.323 36.6679 128.007 36.4297 128.71 36.1171V38.3554C128.061 38.66 127.401 38.8828 126.729 39.0233C126.057 39.164 125.253 39.2342 124.315 39.2342C123.042 39.2342 121.921 38.9882 120.952 38.4961C119.991 37.996 119.237 37.2538 118.69 36.2695C118.151 35.285 117.882 34.0624 117.882 32.6015C117.882 31.1483 118.128 29.914 118.62 28.8983C119.112 27.8827 119.803 27.1093 120.694 26.5781C121.585 26.0468 122.624 25.7812 123.811 25.7812ZM123.811 27.8554C122.944 27.8554 122.241 28.1366 121.702 28.6991C121.171 29.2616 120.858 30.0859 120.764 31.1717H126.671C126.663 30.5234 126.553 29.9491 126.342 29.4491C126.139 28.9492 125.827 28.5586 125.405 28.2773C124.991 27.9961 124.46 27.8554 123.811 27.8554ZM140.006 25.7812C140.224 25.7812 140.463 25.7929 140.72 25.8163C140.978 25.8398 141.201 25.871 141.388 25.91L141.131 28.4882C140.967 28.4413 140.763 28.4062 140.521 28.3828C140.287 28.3592 140.076 28.3475 139.888 28.3475C139.396 28.3475 138.927 28.4296 138.482 28.5937C138.037 28.75 137.642 28.9921 137.299 29.3203C136.955 29.6405 136.685 30.0428 136.49 30.5273C136.295 31.0117 136.197 31.5742 136.197 32.2148V38.9999H133.431V26.0273H135.588L135.963 28.3124H136.092C136.349 27.8515 136.67 27.4297 137.052 27.0467C137.435 26.6639 137.873 26.3593 138.365 26.1328C138.865 25.8983 139.412 25.7812 140.006 25.7812ZM145.032 21.8671H150.13C152.341 21.8671 154.009 22.1875 155.134 22.8281C156.259 23.4686 156.822 24.5741 156.822 26.1445C156.822 26.8007 156.705 27.3944 156.469 27.9257C156.243 28.4491 155.911 28.8827 155.473 29.2265C155.037 29.5624 154.497 29.789 153.856 29.9062V30.0233C154.521 30.1406 155.11 30.3476 155.626 30.6445C156.15 30.9413 156.559 31.3672 156.856 31.9217C157.161 32.4764 157.314 33.1952 157.314 34.0781C157.314 35.125 157.063 36.0155 156.564 36.7499C156.072 37.4843 155.364 38.0429 154.443 38.4257C153.528 38.8085 152.442 38.9999 151.185 38.9999H145.032V21.8671ZM147.845 28.9336H150.54C151.813 28.9336 152.697 28.7264 153.189 28.3124C153.681 27.8984 153.927 27.2929 153.927 26.4961C153.927 25.6835 153.634 25.0976 153.048 24.7382C152.47 24.3788 151.548 24.1991 150.282 24.1991H147.845V28.9336ZM147.845 31.207V36.6445H150.81C152.122 36.6445 153.043 36.3905 153.576 35.8828C154.107 35.3749 154.372 34.6874 154.372 33.8203C154.372 33.289 154.251 32.828 154.009 32.4374C153.774 32.0468 153.388 31.7461 152.848 31.535C152.31 31.3163 151.582 31.207 150.669 31.207H147.845ZM173.016 32.4842C173.016 33.5624 172.875 34.5194 172.594 35.3554C172.312 36.1913 171.903 36.8984 171.363 37.4765C170.824 38.0468 170.176 38.4842 169.417 38.789C168.66 39.0859 167.805 39.2342 166.852 39.2342C165.961 39.2342 165.145 39.0859 164.403 38.789C163.66 38.4842 163.015 38.0468 162.469 37.4765C161.929 36.8984 161.512 36.1913 161.215 35.3554C160.918 34.5194 160.77 33.5624 160.77 32.4842C160.77 31.0546 161.016 29.8436 161.508 28.8515C162.007 27.8515 162.718 27.0898 163.641 26.5663C164.562 26.0429 165.66 25.7812 166.933 25.7812C168.129 25.7812 169.183 26.0429 170.098 26.5663C171.012 27.0898 171.727 27.8515 172.242 28.8515C172.758 29.8514 173.016 31.0624 173.016 32.4842ZM163.605 32.4842C163.605 33.4297 163.719 34.2382 163.945 34.91C164.179 35.582 164.539 36.0976 165.024 36.457C165.508 36.8086 166.132 36.9842 166.899 36.9842C167.664 36.9842 168.289 36.8086 168.774 36.457C169.258 36.0976 169.614 35.582 169.84 34.91C170.067 34.2382 170.179 33.4297 170.179 32.4842C170.179 31.5389 170.067 30.7382 169.84 30.082C169.614 29.4179 169.258 28.9139 168.774 28.5703C168.289 28.2187 167.661 28.0429 166.887 28.0429C165.747 28.0429 164.914 28.4257 164.391 29.1913C163.867 29.957 163.605 31.0546 163.605 32.4842ZM180.01 32.3671L175.675 26.0273H178.815L181.78 30.5858L184.756 26.0273H187.885L183.526 32.3671L188.109 38.9999H184.956L181.78 34.1366L178.593 38.9999H175.464L180.01 32.3671Z" fill="url(#paint3_linear_1973_151)"/>
<defs>
<linearGradient id="paint0_linear_1973_151" x1="20.3769" y1="10.6251" x2="42.3956" y2="40.9634" gradientUnits="userSpaceOnUse">
<stop stop-color="#F043FF"/>
<stop offset="0.461458" stop-color="#5489D8"/>
<stop offset="1" stop-color="#2CFF64"/>
</linearGradient>
<linearGradient id="paint1_linear_1973_151" x1="30.2496" y1="9.00037" x2="57.4449" y2="30.8088" gradientUnits="userSpaceOnUse">
<stop stop-color="#FC2EF5"/>
<stop offset="0.461458" stop-color="#5489D8"/>
<stop offset="1" stop-color="#2CFF64"/>
</linearGradient>
<linearGradient id="paint2_linear_1973_151" x1="35.5" y1="12.0002" x2="50.6231" y2="61.2015" gradientUnits="userSpaceOnUse">
<stop stop-color="#FC2EF5"/>
<stop offset="0.461458" stop-color="#5489D8"/>
<stop offset="1" stop-color="#2CFF64"/>
</linearGradient>
<linearGradient id="paint3_linear_1973_151" x1="81.1713" y1="13.4999" x2="192.973" y2="35.2678" gradientUnits="userSpaceOnUse">
<stop stop-color="#FC2EF5"/>
<stop offset="0.461458" stop-color="#5489D8"/>
<stop offset="1" stop-color="#2CFF64"/>
</linearGradient>
</defs>
</svg>
