<svg width="192" height="60" viewBox="0 0 192 60" fill="none" xmlns="http://www.w3.org/2000/svg">
<path d="M29.8531 7.5L49.2494 18.7305L29.8531 30.273L10.5 18.7133L29.8531 7.5Z" stroke="url(#paint0_linear_2025_3099)" stroke-width="2" stroke-miterlimit="10" stroke-linejoin="round"/>
<path d="M29.8746 52.5005L49.3355 41.2527L49.2494 18.731L29.853 30.2735L29.8746 52.5005Z" stroke="url(#paint1_linear_2025_3099)" stroke-width="2" stroke-miterlimit="10" stroke-linejoin="round"/>
<path d="M10.5 41.2956V18.7134L29.8531 30.2731L29.8748 52.5001L10.5 41.2956Z" stroke="url(#paint2_linear_2025_3099)" stroke-width="2" stroke-miterlimit="10" stroke-linejoin="round"/>
<g style="mix-blend-mode:soft-light">
<path d="M49.2494 18.7305L29.8532 7.5L10.5 18.7133M49.2494 18.7305L29.8532 30.273M49.2494 18.7305L49.3356 41.2522L29.8748 52.5M10.5 18.7133L29.8532 30.273M10.5 18.7133V41.2955L29.8748 52.5M29.8532 30.273L29.8748 52.5" stroke="#49FFDE" stroke-opacity="0.56" stroke-width="2" stroke-miterlimit="10" stroke-linejoin="round"/>
</g>
<path d="M80.0875 24.0116C79.2671 24.0116 78.5327 24.1601 77.8844 24.457C77.2438 24.7538 76.7008 25.1836 76.2554 25.7461C75.8101 26.3008 75.4703 26.9765 75.2359 27.7733C75.0016 28.5625 74.8844 29.453 74.8844 30.4453C74.8844 31.7734 75.0719 32.9179 75.4469 33.8788C75.8219 34.832 76.3922 35.5663 77.1578 36.082C77.9234 36.5897 78.8921 36.8437 80.0641 36.8437C80.7907 36.8437 81.4976 36.7733 82.1851 36.6328C82.8727 36.4921 83.5835 36.3007 84.3179 36.0586V38.4491C83.6227 38.7226 82.9195 38.9218 82.2086 39.0467C81.4976 39.1718 80.6773 39.2342 79.7476 39.2342C77.9977 39.2342 76.5445 38.8711 75.3883 38.1445C74.2399 37.4179 73.3804 36.3944 72.8101 35.0741C72.2476 33.7538 71.9663 32.207 71.9663 30.4336C71.9663 29.1367 72.146 27.9491 72.5054 26.8711C72.8648 25.7929 73.3883 24.8632 74.0758 24.082C74.7632 23.2928 75.6109 22.6874 76.6187 22.2656C77.6344 21.8359 78.7945 21.6211 80.0992 21.6211C80.9585 21.6211 81.8023 21.7187 82.6304 21.914C83.4664 22.1015 84.2398 22.3711 84.9508 22.7225L83.9663 25.0429C83.3726 24.7616 82.7515 24.5195 82.1032 24.3163C81.4547 24.1132 80.7827 24.0116 80.0875 24.0116ZM86.7194 26.0273H89.7194L92.3795 33.4336C92.4967 33.7694 92.6021 34.1015 92.6959 34.4296C92.7974 34.75 92.8834 35.0663 92.9537 35.3788C93.0319 35.6914 93.0944 36.0038 93.1412 36.3163H93.2116C93.2897 35.9101 93.3991 35.4569 93.5396 34.957C93.6881 34.4491 93.8522 33.9413 94.0319 33.4336L96.5866 26.0273H99.5513L93.985 40.7812C93.6647 41.6249 93.2701 42.3437 92.8013 42.9374C92.3404 43.5389 91.7936 43.9921 91.1608 44.2967C90.5279 44.6093 89.8052 44.7656 88.9928 44.7656C88.6022 44.7656 88.2623 44.7421 87.9733 44.6953C87.6842 44.6561 87.4381 44.6132 87.235 44.5663V42.3632C87.3991 42.4022 87.6061 42.4375 87.8561 42.4687C88.106 42.4999 88.3639 42.5156 88.6295 42.5156C89.1217 42.5156 89.5475 42.4178 89.9069 42.2225C90.2662 42.0272 90.571 41.7499 90.8209 41.3906C91.0709 41.039 91.2779 40.6366 91.442 40.1836L91.8991 38.9648L86.7194 26.0273ZM105.234 20.7656V25.16C105.234 25.6679 105.218 26.1679 105.187 26.66C105.164 27.1445 105.14 27.5234 105.117 27.7967H105.234C105.586 27.2342 106.074 26.7616 106.699 26.3788C107.332 25.9882 108.14 25.7929 109.125 25.7929C110.664 25.7929 111.902 26.3593 112.84 27.4921C113.777 28.6171 114.246 30.2851 114.246 32.4961C114.246 33.9647 114.031 35.1991 113.601 36.1991C113.171 37.1992 112.566 37.957 111.785 38.4725C111.011 38.9804 110.101 39.2342 109.054 39.2342C108.07 39.2342 107.273 39.0547 106.664 38.6953C106.062 38.3281 105.59 37.9022 105.246 37.4179H105.047L104.543 38.9999H102.48V20.7656H105.234ZM108.398 28.0312C107.617 28.0312 106.996 28.1875 106.535 28.4999C106.082 28.8124 105.754 29.2811 105.55 29.9062C105.347 30.5234 105.242 31.3085 105.234 32.2616V32.5078C105.234 33.953 105.461 35.0585 105.914 35.8241C106.375 36.5897 107.211 36.9725 108.422 36.9725C109.382 36.9725 110.121 36.5858 110.636 35.8124C111.152 35.0312 111.41 33.914 111.41 32.4608C111.41 30.9922 111.152 29.8867 110.636 29.1445C110.129 28.4023 109.382 28.0312 108.398 28.0312ZM123.561 25.7812C124.717 25.7812 125.71 26.0195 126.538 26.4961C127.366 26.9726 128.003 27.6484 128.448 28.5233C128.893 29.3984 129.116 30.4453 129.116 31.664V33.1406H120.456C120.487 34.3984 120.823 35.3671 121.464 36.0467C122.112 36.7265 123.018 37.0663 124.182 37.0663C125.01 37.0663 125.753 36.9883 126.409 36.832C127.073 36.6679 127.757 36.4297 128.46 36.1171V38.3554C127.811 38.66 127.151 38.8828 126.479 39.0233C125.807 39.164 125.003 39.2342 124.065 39.2342C122.792 39.2342 121.671 38.9882 120.702 38.4961C119.741 37.996 118.987 37.2538 118.44 36.2695C117.901 35.285 117.632 34.0624 117.632 32.6015C117.632 31.1483 117.878 29.914 118.37 28.8983C118.862 27.8827 119.553 27.1093 120.444 26.5781C121.335 26.0468 122.374 25.7812 123.561 25.7812ZM123.561 27.8554C122.694 27.8554 121.991 28.1366 121.452 28.6991C120.921 29.2616 120.608 30.0859 120.514 31.1717H126.421C126.413 30.5234 126.303 29.9491 126.092 29.4491C125.889 28.9492 125.577 28.5586 125.155 28.2773C124.741 27.9961 124.21 27.8554 123.561 27.8554ZM139.756 25.7812C139.974 25.7812 140.213 25.7929 140.47 25.8163C140.728 25.8398 140.951 25.871 141.138 25.91L140.881 28.4882C140.717 28.4413 140.513 28.4062 140.271 28.3828C140.037 28.3592 139.826 28.3475 139.638 28.3475C139.146 28.3475 138.677 28.4296 138.232 28.5937C137.787 28.75 137.392 28.9921 137.049 29.3203C136.705 29.6405 136.435 30.0428 136.24 30.5273C136.045 31.0117 135.947 31.5742 135.947 32.2148V38.9999H133.181V26.0273H135.338L135.713 28.3124H135.842C136.099 27.8515 136.42 27.4297 136.802 27.0467C137.185 26.6639 137.623 26.3593 138.115 26.1328C138.615 25.8983 139.162 25.7812 139.756 25.7812ZM144.782 21.8671H149.88C152.091 21.8671 153.759 22.1875 154.884 22.8281C156.009 23.4686 156.572 24.5741 156.572 26.1445C156.572 26.8007 156.455 27.3944 156.219 27.9257C155.993 28.4491 155.661 28.8827 155.223 29.2265C154.787 29.5624 154.247 29.789 153.606 29.9062V30.0233C154.271 30.1406 154.86 30.3476 155.376 30.6445C155.9 30.9413 156.309 31.3672 156.606 31.9217C156.911 32.4764 157.064 33.1952 157.064 34.0781C157.064 35.125 156.813 36.0155 156.314 36.7499C155.822 37.4843 155.114 38.0429 154.193 38.4257C153.278 38.8085 152.192 38.9999 150.935 38.9999H144.782V21.8671ZM147.595 28.9336H150.29C151.563 28.9336 152.447 28.7264 152.939 28.3124C153.431 27.8984 153.677 27.2929 153.677 26.4961C153.677 25.6835 153.384 25.0976 152.798 24.7382C152.22 24.3788 151.298 24.1991 150.032 24.1991H147.595V28.9336ZM147.595 31.207V36.6445H150.56C151.872 36.6445 152.793 36.3905 153.326 35.8828C153.857 35.3749 154.122 34.6874 154.122 33.8203C154.122 33.289 154.001 32.828 153.759 32.4374C153.524 32.0468 153.138 31.7461 152.598 31.535C152.06 31.3163 151.332 31.207 150.419 31.207H147.595ZM172.766 32.4842C172.766 33.5624 172.625 34.5194 172.344 35.3554C172.062 36.1913 171.653 36.8984 171.113 37.4765C170.574 38.0468 169.926 38.4842 169.167 38.789C168.41 39.0859 167.555 39.2342 166.602 39.2342C165.711 39.2342 164.895 39.0859 164.153 38.789C163.41 38.4842 162.765 38.0468 162.219 37.4765C161.679 36.8984 161.262 36.1913 160.965 35.3554C160.668 34.5194 160.52 33.5624 160.52 32.4842C160.52 31.0546 160.766 29.8436 161.258 28.8515C161.757 27.8515 162.468 27.0898 163.391 26.5663C164.312 26.0429 165.41 25.7812 166.683 25.7812C167.879 25.7812 168.933 26.0429 169.848 26.5663C170.762 27.0898 171.477 27.8515 171.992 28.8515C172.508 29.8514 172.766 31.0624 172.766 32.4842ZM163.355 32.4842C163.355 33.4297 163.469 34.2382 163.695 34.91C163.929 35.582 164.289 36.0976 164.774 36.457C165.258 36.8086 165.882 36.9842 166.649 36.9842C167.414 36.9842 168.039 36.8086 168.524 36.457C169.008 36.0976 169.364 35.582 169.59 34.91C169.817 34.2382 169.929 33.4297 169.929 32.4842C169.929 31.5389 169.817 30.7382 169.59 30.082C169.364 29.4179 169.008 28.9139 168.524 28.5703C168.039 28.2187 167.411 28.0429 166.637 28.0429C165.497 28.0429 164.664 28.4257 164.141 29.1913C163.617 29.957 163.355 31.0546 163.355 32.4842ZM179.76 32.3671L175.425 26.0273H178.565L181.53 30.5858L184.506 26.0273H187.635L183.276 32.3671L187.859 38.9999H184.706L181.53 34.1366L178.343 38.9999H175.214L179.76 32.3671Z" fill="url(#paint3_linear_2025_3099)"/>
<defs>
<linearGradient id="paint0_linear_2025_3099" x1="20.1269" y1="10.6251" x2="42.1456" y2="40.9634" gradientUnits="userSpaceOnUse">
<stop stop-color="#F043FF"/>
<stop offset="0.461458" stop-color="#5489D8"/>
<stop offset="1" stop-color="#2CFF64"/>
</linearGradient>
<linearGradient id="paint1_linear_2025_3099" x1="29.9996" y1="9.00037" x2="57.1949" y2="30.8088" gradientUnits="userSpaceOnUse">
<stop stop-color="#FC2EF5"/>
<stop offset="0.461458" stop-color="#5489D8"/>
<stop offset="1" stop-color="#2CFF64"/>
</linearGradient>
<linearGradient id="paint2_linear_2025_3099" x1="35.25" y1="12.0002" x2="50.3731" y2="61.2015" gradientUnits="userSpaceOnUse">
<stop stop-color="#FC2EF5"/>
<stop offset="0.461458" stop-color="#5489D8"/>
<stop offset="1" stop-color="#2CFF64"/>
</linearGradient>
<linearGradient id="paint3_linear_2025_3099" x1="80.9213" y1="13.4999" x2="192.723" y2="35.2678" gradientUnits="userSpaceOnUse">
<stop stop-color="#FC2EF5"/>
<stop offset="0.461458" stop-color="#5489D8"/>
<stop offset="1" stop-color="#2CFF64"/>
</linearGradient>
</defs>
</svg>
