<svg width="18" height="19" viewBox="0 0 18 19" fill="none" xmlns="http://www.w3.org/2000/svg">
<path d="M15.2948 2.68637H2.69482V13.4881H15.2948V2.68637Z" fill="white"/>
<path fill-rule="evenodd" clip-rule="evenodd" d="M18 9.00145C18 13.9729 13.9706 18.0029 9 18.0029C4.02944 18.0029 0 13.9729 0 9.00145C0 4.03008 4.02944 0 9 0C13.9706 0 18 4.03008 18 9.00145ZM6.44966 12.5836H4.70301C4.33599 12.5836 4.15469 12.5836 4.04415 12.5128C3.92476 12.4354 3.8518 12.3072 3.84295 12.1656C3.83631 12.0352 3.92697 11.8759 4.10827 11.5575L8.42096 3.95458C8.60447 3.63173 8.69732 3.4703 8.8145 3.4106C8.94052 3.34648 9.09087 3.34648 9.2169 3.4106C9.33408 3.4703 9.42694 3.63173 9.61044 3.95458L10.497 5.5025L10.5016 5.5104C10.6998 5.85675 10.8003 6.0324 10.8442 6.21674C10.8928 6.41797 10.8928 6.63025 10.8442 6.83149C10.7999 7.01723 10.7004 7.19415 10.4992 7.54574L8.2339 11.5509L8.22804 11.5611C8.02853 11.9104 7.92742 12.0873 7.78729 12.2209C7.63473 12.3669 7.45122 12.4729 7.25002 12.5327C7.06651 12.5836 6.8609 12.5836 6.44966 12.5836ZM10.8605 12.5836H13.3633C13.7325 12.5836 13.9182 12.5836 14.0289 12.5107C14.1482 12.4333 14.2234 12.3027 14.2301 12.1613C14.2364 12.0351 14.1477 11.882 13.974 11.5821C13.968 11.5719 13.962 11.5615 13.9559 11.5509L12.7022 9.40597L12.688 9.38182C12.5118 9.08387 12.4229 8.93341 12.3087 8.87526C12.1827 8.81112 12.0345 8.81112 11.9085 8.87526C11.7935 8.93496 11.7007 9.09196 11.5172 9.40818L10.268 11.5531L10.2637 11.5605C10.0808 11.8762 9.98945 12.034 9.99604 12.1635C10.0049 12.305 10.0778 12.4354 10.1972 12.5128C10.3056 12.5836 10.4913 12.5836 10.8605 12.5836Z" fill="#E84142"/>
</svg>
