<svg width="18" height="19" viewBox="0 0 18 19" fill="none" xmlns="http://www.w3.org/2000/svg">
<path fill-rule="evenodd" clip-rule="evenodd" d="M9.00004 0L3.47405 2.75752L5.50567 3.77623L9.00004 2.0374L12.4944 3.77623L14.526 2.75752L9.00004 0ZM12.4944 5.21647L14.526 6.23516V8.27256L11.0316 10.0114V13.489L9.00004 14.5077L6.96842 13.489V10.0114L3.47405 8.27256V6.23516L5.50567 5.21647L9.00004 6.95525L12.4944 5.21647ZM14.526 9.7128V11.7502L12.4944 12.7689V10.7315L14.526 9.7128ZM12.474 14.2091L15.9685 12.4703V8.99265L18 7.97399V13.489L12.474 16.2465V14.2091ZM15.9685 5.51504L13.9368 4.49635L15.9685 3.47764L18 4.49635V6.53375L15.9685 7.55247V5.51504ZM6.96842 16.9842V14.9468L9.00004 15.9655L11.0316 14.9468V16.9842L9.00004 18.0029L6.96842 16.9842ZM5.50567 12.7689L3.47405 11.7502V9.7128L5.50567 10.7315V12.7689ZM9.00004 5.51504L6.96842 4.49635L9.00004 3.47764L11.0316 4.49635L9.00004 5.51504ZM4.06322 4.49635L2.0316 5.51504V7.55247L0 6.53375V4.49635L2.0316 3.47764L4.06322 4.49635ZM0 7.97399L2.0316 8.99265V12.4703L5.52596 14.2091V16.2465L0 13.489V7.97399Z" fill="#F0B90B"/>
</svg>
