<svg width="40" height="41" viewBox="0 0 40 41" fill="none" xmlns="http://www.w3.org/2000/svg">
<path fill-rule="evenodd" clip-rule="evenodd" d="M20.0001 0.138123L7.72011 6.26594L12.2348 8.52975L20.0001 4.66568L27.7652 8.52975L32.28 6.26594L20.0001 0.138123ZM27.7652 11.7303L32.28 13.994V18.5216L24.5146 22.3856V30.1138L20.0001 32.3776L15.4854 30.1138V22.3856L7.72011 18.5216V13.994L12.2348 11.7303L20.0001 15.5942L27.7652 11.7303ZM32.28 21.7221V26.2497L27.7652 28.5135V23.9858L32.28 21.7221ZM27.7201 31.7139L35.4855 27.8499V20.1218L40 17.8581V30.1138L27.7201 36.2415V31.7139ZM35.4855 12.3938L30.9707 10.13L35.4855 7.8662L40 10.13V14.6576L35.4855 16.9214V12.3938ZM15.4854 37.8809V33.3533L20.0001 35.617L24.5146 33.3533V37.8809L20.0001 40.1446L15.4854 37.8809ZM12.2348 28.5135L7.72011 26.2497V21.7221L12.2348 23.9858V28.5135ZM20.0001 12.3938L15.4854 10.13L20.0001 7.8662L24.5146 10.13L20.0001 12.3938ZM9.02937 10.13L4.51467 12.3938V16.9214L0 14.6576V10.13L4.51467 7.8662L9.02937 10.13ZM0 17.8581L4.51467 20.1218V27.8499L12.2799 31.7139V36.2415L0 30.1138V17.8581Z" fill="#F0B90B"/>
</svg>
