<svg width="40" height="41" viewBox="0 0 40 41" fill="none" xmlns="http://www.w3.org/2000/svg">
<path d="M33.9873 6.10782H5.9873V30.1117H33.9873V6.10782Z" fill="white"/>
<path fill-rule="evenodd" clip-rule="evenodd" d="M40 20.1413C40 31.1889 31.0458 40.1446 20 40.1446C8.9543 40.1446 0 31.1889 0 20.1413C0 9.09386 8.9543 0.138123 20 0.138123C31.0458 0.138123 40 9.09386 40 20.1413ZM14.3326 28.1016H10.4511C9.63553 28.1016 9.23265 28.1016 8.987 27.9445C8.72168 27.7724 8.55955 27.4874 8.53989 27.1728C8.52514 26.883 8.7266 26.5291 9.12948 25.8215L18.7132 8.92609C19.121 8.20863 19.3274 7.84991 19.5878 7.71724C19.8678 7.57474 20.2019 7.57474 20.482 7.71724C20.7424 7.84991 20.9488 8.20863 21.3565 8.92609L23.3268 12.3659L23.3368 12.3834C23.7773 13.1531 24.0006 13.5434 24.0981 13.9531C24.2062 14.4003 24.2062 14.872 24.0981 15.3192C23.9999 15.732 23.7788 16.1251 23.3317 16.9064L18.2976 25.8067L18.2845 25.8295C17.8412 26.6056 17.6165 26.9989 17.3051 27.2956C16.9661 27.62 16.5583 27.8558 16.1112 27.9887C15.7034 28.1016 15.2464 28.1016 14.3326 28.1016ZM24.1345 28.1016H29.6961C30.5166 28.1016 30.9294 28.1016 31.1752 27.9397C31.4405 27.7676 31.6075 27.4775 31.6224 27.1632C31.6365 26.8828 31.4394 26.5426 31.0533 25.8761C31.0399 25.8534 31.0266 25.8303 31.0131 25.8069L28.2272 21.0403L28.1955 20.9866C27.804 20.3245 27.6064 19.9902 27.3526 19.8609C27.0727 19.7184 26.7433 19.7184 26.4634 19.8609C26.2079 19.9936 26.0015 20.3425 25.5937 21.0452L22.8177 25.8118L22.8082 25.8282C22.4019 26.5298 22.1988 26.8804 22.2134 27.168C22.2331 27.4826 22.3952 27.7724 22.6605 27.9445C22.9013 28.1016 23.314 28.1016 24.1345 28.1016Z" fill="#E84142"/>
</svg>
