<svg width="54" height="20" viewBox="0 0 54 20" fill="none" xmlns="http://www.w3.org/2000/svg">
<path d="M26.6063 9.57987C26.1165 9.38183 25.5183 9.21674 24.8116 9.08431H24.7966C24.1101 8.96246 23.5951 8.85059 23.2518 8.74869C22.9086 8.6474 22.6386 8.51013 22.4416 8.33718C22.2446 8.16454 22.1464 7.92568 22.1464 7.6206C22.1464 7.17341 22.3131 6.83296 22.6461 6.59924C22.9795 6.36551 23.4185 6.2485 23.9636 6.2485C24.5594 6.2485 25.0411 6.40089 25.4098 6.70597C25.7408 6.9799 25.9435 7.32792 26.018 7.7494C26.0327 7.83346 26.1033 7.89544 26.1879 7.89635L27.8637 7.90905C27.9664 7.90995 28.0487 7.82106 28.0384 7.71796C27.9823 7.15406 27.7976 6.64126 27.4847 6.17987C27.1363 5.66677 26.6567 5.26766 26.0459 4.98284C25.4351 4.69832 24.7411 4.55591 23.9636 4.55591C23.2266 4.55591 22.5629 4.69318 21.9722 4.96772C21.3818 5.24226 20.9223 5.62323 20.5941 6.11123C20.2659 6.59924 20.1019 7.14801 20.1019 7.75787C20.1019 8.4288 20.2482 8.9676 20.541 9.37397C20.8338 9.78064 21.2172 10.0881 21.6917 10.2965C22.1662 10.5048 22.7365 10.6699 23.4029 10.792L23.4786 10.8071C24.1849 10.9393 24.7128 11.0563 25.0612 11.1579C25.4095 11.2598 25.6843 11.4019 25.8864 11.5848C26.0882 11.7677 26.1891 12.0169 26.1891 12.3319C26.1891 12.7794 26.0075 13.1298 25.6441 13.3838C25.2807 13.6381 24.811 13.7651 24.2356 13.7651C23.5488 13.7651 22.9939 13.5897 22.5698 13.239C22.1839 12.92 21.9569 12.5103 21.8887 12.0102C21.877 11.9237 21.8056 11.8581 21.7191 11.8569L20.0454 11.8315C19.9436 11.83 19.8614 11.9165 19.8692 12.0187C19.9166 12.6337 20.1076 13.1879 20.4422 13.6813C20.8106 14.2253 21.3179 14.6522 21.9641 14.9621C22.6101 15.2723 23.3521 15.4272 24.1903 15.4272C24.9675 15.4272 25.6642 15.285 26.2801 15.0002C26.8958 14.7157 27.3781 14.3217 27.7264 13.8186C28.0748 13.3155 28.249 12.7489 28.249 12.1185C28.249 11.4475 28.0973 10.9063 27.7946 10.4945C27.4919 10.083 27.0955 9.77791 26.606 9.57957L26.6063 9.57987Z" fill="#12FF80"/>
<path d="M36.8968 13.6892H36.6353C36.4839 13.6892 36.365 13.6487 36.2794 13.567C36.1935 13.486 36.1506 13.3536 36.1506 13.1707V10.2584C36.1506 9.33345 35.8578 8.62956 35.2725 8.14669C34.6869 7.66413 33.9974 7.41801 32.9171 7.41801C31.8973 7.41801 31.1006 7.64115 30.4747 8.07806C29.9042 8.47657 29.5603 9.02232 29.4426 9.71623C29.4243 9.82417 29.5053 9.92304 29.6138 9.92304H31.1528C31.23 9.92304 31.2991 9.87194 31.3195 9.79696C31.3898 9.54026 31.5447 9.33072 31.7844 9.16836C32.0619 8.98029 32.3916 8.88626 32.8259 8.88626C33.6448 8.88626 34.2271 9.39452 34.2271 10.1516V10.3884C34.2271 10.4851 34.1493 10.5634 34.0532 10.5634H32.6592C31.5285 10.5634 30.6702 10.7872 30.0849 11.2344C29.4993 11.6819 29.2065 12.3171 29.2065 13.1401C29.2065 13.8519 29.4741 14.4109 30.0093 14.8173C30.4108 15.1221 30.8907 15.298 31.3847 15.3751C31.7622 15.4341 32.1499 15.4556 32.5282 15.3945C32.9247 15.3307 33.2466 15.1662 33.5688 14.9316C33.8583 14.7211 34.0998 14.4514 34.3202 14.1225C34.4277 13.9365 34.7097 14.0112 34.7097 14.2262V14.4847C34.7094 14.9546 35.0875 15.3355 35.5542 15.3355H36.8968C36.9929 15.3355 37.0707 15.2572 37.0707 15.1605V13.864C37.0707 13.7672 36.9929 13.6889 36.8968 13.6889V13.6892ZM34.2274 12.1188C34.2274 12.4949 34.149 12.8226 33.9926 13.102C33.6646 13.688 33.0778 13.994 32.4174 13.994C32.0336 13.994 31.7258 13.9027 31.4937 13.7197C31.2612 13.5368 31.1453 13.2928 31.1453 12.9877C31.1453 12.6424 31.2742 12.3755 31.5315 12.1874C31.7889 11.9996 32.1547 11.9053 32.6295 11.9053H34.0535C34.1496 11.9053 34.2274 11.9836 34.2274 12.0804V12.1188Z" fill="#12FF80"/>
<path d="M42.5076 4.66748H40.5049C39.4484 4.66748 38.5919 5.5298 38.5919 6.59349V7.43979C38.5919 7.53655 38.5141 7.61486 38.418 7.61486H37.2745C37.1784 7.61486 37.1006 7.69317 37.1006 7.78992V9.10154C37.1006 9.1983 37.1784 9.27661 37.2745 9.27661H38.418C38.5141 9.27661 38.5919 9.35492 38.5919 9.45167V15.1608C38.5919 15.2575 38.6697 15.3358 38.7658 15.3358H40.3262C40.4223 15.3358 40.5001 15.2575 40.5001 15.1608V9.45167C40.5001 9.35492 40.5779 9.27661 40.6739 9.27661H42.4923C42.5884 9.27661 42.6662 9.1983 42.6662 9.10154V7.78992C42.6662 7.69317 42.5884 7.61486 42.4923 7.61486H40.6739C40.5779 7.61486 40.5001 7.53655 40.5001 7.43979V6.67936C40.5001 6.48586 40.6559 6.32923 40.8478 6.32923H42.5073C42.6034 6.32923 42.6812 6.25092 42.6812 6.15417V4.84255C42.6812 4.74579 42.6034 4.66748 42.5073 4.66748H42.5076Z" fill="#12FF80"/>
<path d="M50.1524 9.19134C49.8143 8.6223 49.3521 8.1851 48.7668 7.88002C48.1812 7.57524 47.5046 7.41832 46.7376 7.41832C45.9707 7.41832 45.3088 7.58794 44.7235 7.91812C44.1379 8.24859 43.6835 8.71603 43.3607 9.32075C43.0375 9.92576 42.876 10.6345 42.876 11.4478C42.876 12.2612 43.0426 12.9397 43.3757 13.5444C43.709 14.1491 44.1859 14.6141 44.8067 14.9394C45.4274 15.2648 46.1568 15.4275 46.995 15.4275C47.641 15.4275 48.2191 15.308 48.729 15.0692C49.2386 14.8306 49.65 14.5025 49.9629 14.0859C50.2308 13.7291 50.4137 13.3385 50.5116 12.9143C50.5371 12.8042 50.4545 12.6984 50.3422 12.6984H48.7746C48.6995 12.6984 48.6338 12.7474 48.6098 12.819C48.4992 13.1477 48.3043 13.4074 48.0248 13.5979C47.7115 13.8114 47.3229 13.9181 46.8587 13.9181C46.4749 13.9181 46.1394 13.8368 45.8517 13.6741C45.564 13.5117 45.337 13.2828 45.1703 12.988C45.1046 12.8716 45.0508 12.7486 45.0079 12.6219C44.9619 12.4858 44.9289 12.3455 44.9061 12.2034C44.8982 12.1538 44.891 12.1036 44.885 12.0535C44.8733 11.95 44.9547 11.8596 45.058 11.8596H50.4639C50.5515 11.8596 50.6266 11.7943 50.6365 11.7063C50.644 11.6419 50.6491 11.5763 50.6518 11.5089C50.657 11.3871 50.6594 11.2752 50.6594 11.1736C50.6594 10.4216 50.4903 9.76098 50.1521 9.19164L50.1524 9.19134ZM48.5281 10.5329H45.1424C45.0313 10.5329 44.9475 10.4292 44.9721 10.32C45.0262 10.0809 45.1199 9.86499 45.2532 9.67148C45.4247 9.42264 45.6469 9.23186 45.9196 9.09973C46.1923 8.9676 46.4899 8.90138 46.813 8.90138C47.3379 8.90138 47.7722 9.04379 48.1154 9.32831C48.41 9.57261 48.604 9.90279 48.698 10.3191C48.7227 10.4286 48.6395 10.5329 48.5281 10.5329Z" fill="#12FF80"/>
<path d="M15.9759 9.99893H14.4918C14.0485 9.99893 13.6894 10.3606 13.6894 10.8068V12.9756C13.6894 13.4219 13.3302 13.7835 12.887 13.7835H6.9826C6.53934 13.7835 6.18018 14.1452 6.18018 14.5914V16.0857C6.18018 16.532 6.53934 16.8936 6.9826 16.8936H13.2287C13.672 16.8936 14.026 16.532 14.026 16.0857V14.8868C14.026 14.4406 14.3852 14.124 14.8284 14.124H15.9756C16.4189 14.124 16.778 13.7624 16.778 13.3161V10.7975C16.778 10.3512 16.4189 9.99893 15.9756 9.99893H15.9759Z" fill="#12FF80"/>
<path d="M6.17979 7.0304C6.17979 6.58412 6.53896 6.2225 6.98221 6.2225H12.883C13.3262 6.2225 13.6854 5.86088 13.6854 5.4146V3.92035C13.6854 3.47408 13.3262 3.11246 12.883 3.11246H6.64016C6.1969 3.11246 5.83774 3.47408 5.83774 3.92035V5.07173C5.83774 5.51801 5.47857 5.87963 5.03531 5.87963H3.89324C3.44999 5.87963 3.09082 6.24125 3.09082 6.68752V9.20888C3.09082 9.65516 3.45149 9.99863 3.89474 9.99863H5.37887C5.82212 9.99863 6.18129 9.63702 6.18129 9.19074L6.17979 7.0307V7.0304Z" fill="#12FF80"/>
<path d="M9.23599 8.42819H10.6616C11.1261 8.42819 11.503 8.80795 11.503 9.2754V10.7107C11.503 11.1784 11.1258 11.5579 10.6616 11.5579H9.23599C8.77142 11.5579 8.39453 11.1781 8.39453 10.7107V9.2754C8.39453 8.80765 8.77172 8.42819 9.23599 8.42819Z" fill="#12FF80"/>
</svg>
