<svg width="191" height="50" viewBox="0 0 191 50" fill="none" xmlns="http://www.w3.org/2000/svg">
<g clip-path="url(#clip0_1973_60)">
<mask id="mask0_1973_60" style="mask-type:alpha" maskUnits="userSpaceOnUse" x="5" y="11" width="40" height="26">
<path d="M24.7592 11.9692C13.9331 11.9692 5.15674 17.4544 5.15674 24.2208C5.15674 30.9871 13.9331 36.4723 24.7592 36.4723C35.5854 36.4723 44.3617 30.9871 44.3617 24.2208C44.3617 17.4544 35.5854 11.9692 24.7592 11.9692Z" fill="white"/>
</mask>
<g mask="url(#mask0_1973_60)">
<path d="M37.317 24.2209C37.317 35.9276 29.8139 41.6604 27.943 42.8297C26.6622 43.6302 25.7317 43.9231 25.3483 44.0245C25.1263 44.0831 24.9731 44.108 24.8884 44.1188C24.8023 44.1298 24.7607 44.1297 24.7591 44.1297V-20.1909C14.2828 -20.1909 3.27205 -17.6009 -6.14689 -11.7141C-15.1125 -6.11051 -27.0037 5.74804 -27.0037 24.2209H37.317ZM24.7591 44.1297C24.7576 44.1297 24.7159 44.1298 24.6298 44.1188C24.5451 44.108 24.3919 44.0831 24.17 44.0245C23.7865 43.9231 22.856 43.6302 21.5752 42.8297C19.7042 41.6604 12.2013 35.9276 12.2013 24.2209H76.5219C76.5219 5.74804 64.6308 -6.11051 55.6651 -11.7141C46.2462 -17.6009 35.2354 -20.1909 24.7591 -20.1909V44.1297ZM12.2013 24.2209C12.2013 12.5143 19.7042 6.78162 21.5752 5.61227C22.856 4.81177 23.7865 4.51887 24.17 4.4175C24.3919 4.35883 24.5451 4.334 24.6298 4.32317C24.7159 4.31215 24.7576 4.31224 24.7591 4.31224V68.6329C35.2354 68.6329 46.2462 66.0429 55.6651 60.156C64.6308 54.5525 76.5219 42.6939 76.5219 24.2209H12.2013ZM24.7591 4.31224C24.7607 4.31224 24.8023 4.31215 24.8884 4.32317C24.9731 4.334 25.1263 4.35883 25.3483 4.4175C25.7317 4.51887 26.6622 4.81177 27.943 5.61227C29.8139 6.78162 37.317 12.5143 37.317 24.2209H-27.0037C-27.0037 42.6939 -15.1125 54.5525 -6.14689 60.156C3.27205 66.0429 14.2828 68.6329 24.7591 68.6329V4.31224Z" fill="#FF7070" fill-opacity="0.5"/>
</g>
<mask id="mask1_1973_60" style="mask-type:alpha" maskUnits="userSpaceOnUse" x="8" y="8" width="34" height="33">
<path d="M16.2372 15.6989C8.58191 23.3541 6.25472 33.4385 11.0392 38.223C15.8238 43.0076 25.9082 40.6804 33.5635 33.0251C41.2187 25.3698 43.5459 15.2854 38.7614 10.5009C33.9769 5.71639 23.8924 8.04357 16.2372 15.6989Z" fill="white"/>
</mask>
<g mask="url(#mask1_1973_60)">
<path d="M33.7799 15.4822C42.0577 23.7601 40.8059 33.1192 40.3098 35.269C39.9702 36.7407 39.5194 37.6058 39.3199 37.9486C39.2044 38.147 39.1137 38.273 39.0614 38.3405C39.0084 38.4092 38.9788 38.4385 38.9777 38.4397L-6.50381 -7.04194C-13.9117 0.365921 -19.8661 9.98313 -22.3637 20.806C-24.741 31.1079 -24.7641 47.9015 -11.7017 60.9639L33.7799 15.4822ZM38.9777 38.4397C38.9766 38.4408 38.9473 38.4702 38.8786 38.5233C38.811 38.5755 38.6851 38.6664 38.4867 38.7818C38.1438 38.9813 37.2788 39.4321 35.8071 39.7718C33.6573 40.2678 24.2982 41.5196 16.0204 33.2418L61.5019 -12.2398C48.4396 -25.3022 31.646 -25.2791 21.344 -22.9017C10.5212 -20.4041 0.904057 -14.4498 -6.50381 -7.04194L38.9777 38.4397ZM16.0204 33.2418C7.74257 24.9639 8.99432 15.6048 9.49036 13.455C9.83004 11.9833 10.2808 11.1183 10.4804 10.7754C10.5958 10.577 10.6866 10.4511 10.7388 10.3835C10.7919 10.3148 10.8213 10.2855 10.8225 10.2844L56.3041 55.766C63.7119 48.3581 69.6663 38.741 72.1638 27.9181C74.5413 17.6161 74.5643 0.822519 61.5019 -12.2398L16.0204 33.2418ZM10.8225 10.2844C10.8236 10.2833 10.8529 10.2538 10.9217 10.2007C10.9892 10.1485 11.1151 10.0577 11.3135 9.94225C11.6563 9.74273 12.5214 9.29192 13.9931 8.95232C16.1429 8.4562 25.502 7.20444 33.7799 15.4822L-11.7017 60.9639C1.36066 74.0262 18.1542 74.0031 28.4562 71.6258C39.279 69.1282 48.8962 63.1738 56.3041 55.766L10.8225 10.2844Z" fill="#FFF970" fill-opacity="0.5"/>
</g>
<mask id="mask2_1973_60" style="mask-type:alpha" maskUnits="userSpaceOnUse" x="8" y="8" width="34" height="33">
<path d="M33.5629 15.6988C25.9077 8.04357 15.8233 5.71637 11.0387 10.5009C6.25422 15.2854 8.58141 25.3699 16.2367 33.0251C23.8919 40.6803 33.9763 43.0075 38.7608 38.223C43.5454 33.4385 41.2182 23.3541 33.5629 15.6988Z" fill="white"/>
</mask>
<g mask="url(#mask2_1973_60)">
<path d="M33.7799 33.2418C25.502 41.5196 16.1429 40.2678 13.9931 39.7718C12.5214 39.4321 11.6563 38.9813 11.3135 38.7818C11.1151 38.6664 10.9892 38.5756 10.9217 38.5233C10.8529 38.4702 10.8236 38.4408 10.8225 38.4397L56.3041 -7.04194C48.8962 -14.4498 39.279 -20.4041 28.4562 -22.9017C18.1542 -25.2791 1.36066 -25.3022 -11.7017 -12.2398L33.7799 33.2418ZM10.8225 38.4397C10.8213 38.4385 10.7919 38.4092 10.7388 38.3405C10.6866 38.2729 10.5958 38.147 10.4804 37.9486C10.2808 37.6058 9.83004 36.7407 9.49036 35.269C8.99432 33.1192 7.74257 23.7601 16.0204 15.4823L61.5019 60.9639C74.5643 47.9014 74.5413 31.1079 72.1638 20.806C69.6663 9.98314 63.7119 0.365921 56.3041 -7.04194L10.8225 38.4397ZM16.0204 15.4823C24.2982 7.20444 33.6573 8.4562 35.8071 8.95233C37.2788 9.29192 38.1438 9.74273 38.4867 9.94225C38.6851 10.0577 38.811 10.1485 38.8786 10.2007C38.9473 10.2538 38.9766 10.2833 38.9777 10.2844L-6.50381 55.766C0.904058 63.1738 10.5212 69.1282 21.344 71.6257C31.646 74.0031 48.4396 74.0262 61.5019 60.9639L16.0204 15.4823ZM38.9777 10.2844C38.9788 10.2856 39.0084 10.3148 39.0614 10.3835C39.1137 10.4511 39.2045 10.577 39.3199 10.7754C39.5194 11.1182 39.9702 11.9833 40.3098 13.455C40.8059 15.6048 42.0577 24.9639 33.7799 33.2418L-11.7017 -12.2398C-24.7641 0.822531 -24.741 17.6161 -22.3637 27.9181C-19.8661 38.741 -13.9117 48.3581 -6.50381 55.766L38.9777 10.2844Z" fill="#70E5FF" fill-opacity="0.5"/>
</g>
<mask id="mask3_1973_60" style="mask-type:alpha" maskUnits="userSpaceOnUse" x="12" y="4" width="26" height="40">
<path d="M12.5078 24.2209C12.5078 35.047 17.993 43.8234 24.7593 43.8234C31.5256 43.8234 37.0109 35.047 37.0109 24.2209C37.0109 13.3948 31.5256 4.61841 24.7593 4.61841C17.993 4.61841 12.5078 13.3948 12.5078 24.2209Z" fill="white"/>
</mask>
<g mask="url(#mask3_1973_60)">
<path d="M24.7593 11.6629C36.4659 11.6629 42.1987 19.1659 43.3681 21.0369C44.1685 22.3177 44.4614 23.2482 44.5628 23.6316C44.6214 23.8536 44.6463 24.0068 44.6571 24.0915C44.6681 24.1776 44.6681 24.2191 44.6681 24.2207H-19.6526C-19.6526 34.697 -17.0626 45.7078 -11.1757 55.1267C-5.57222 64.0924 6.28633 75.9836 24.7593 75.9836V11.6629ZM44.6681 24.2207C44.6681 24.2224 44.6681 24.2639 44.6571 24.35C44.6463 24.4348 44.6214 24.5879 44.5628 24.8099C44.4614 25.1934 44.1685 26.1238 43.3681 27.4046C42.1987 29.2756 36.4659 36.7786 24.7593 36.7786V-27.542C6.28632 -27.542 -5.57223 -15.6509 -11.1757 -6.68521C-17.0626 2.73374 -19.6526 13.7445 -19.6526 24.2207H44.6681ZM24.7593 36.7786C13.0527 36.7786 7.31989 29.2756 6.15054 27.4046C5.35004 26.1238 5.05715 25.1934 4.95578 24.8099C4.89711 24.588 4.87227 24.4348 4.86144 24.35C4.85043 24.264 4.85052 24.2224 4.85052 24.2207H69.1711C69.1711 13.7445 66.5812 2.73373 60.6944 -6.68522C55.0908 -15.6509 43.2323 -27.542 24.7593 -27.542V36.7786ZM4.85052 24.2207C4.85052 24.2191 4.85043 24.1776 4.86144 24.0915C4.87227 24.0068 4.89711 23.8536 4.95578 23.6316C5.05715 23.2482 5.35004 22.3177 6.15054 21.0369C7.31989 19.1659 13.0527 11.6629 24.7593 11.6629V75.9836C43.2323 75.9836 55.0908 64.0924 60.6944 55.1267C66.5812 45.7078 69.1711 34.697 69.1711 24.2207H4.85052Z" fill="#B1EAD5" fill-opacity="0.5"/>
</g>
<mask id="mask4_1973_60" style="mask-type:alpha" maskUnits="userSpaceOnUse" x="5" y="11" width="40" height="26">
<path d="M24.7592 11.9692C13.9331 11.9692 5.15674 17.4544 5.15674 24.2208C5.15674 30.9871 13.9331 36.4723 24.7592 36.4723C35.5854 36.4723 44.3617 30.9871 44.3617 24.2208C44.3617 17.4544 35.5854 11.9692 24.7592 11.9692Z" fill="white"/>
</mask>
<g mask="url(#mask4_1973_60)">
<path d="M37.317 24.2209C37.317 35.9276 29.8139 41.6604 27.943 42.8297C26.6622 43.6302 25.7317 43.9231 25.3483 44.0245C25.1263 44.0831 24.9731 44.108 24.8884 44.1188C24.8023 44.1298 24.7607 44.1297 24.7591 44.1297V-20.1909C14.2828 -20.1909 3.27205 -17.6009 -6.14689 -11.7141C-15.1125 -6.11051 -27.0037 5.74804 -27.0037 24.2209H37.317ZM24.7591 44.1297C24.7576 44.1297 24.7159 44.1298 24.6298 44.1188C24.5451 44.108 24.3919 44.0831 24.17 44.0245C23.7865 43.9231 22.856 43.6302 21.5752 42.8297C19.7042 41.6604 12.2013 35.9276 12.2013 24.2209H76.5219C76.5219 5.74804 64.6308 -6.11051 55.6651 -11.7141C46.2462 -17.6009 35.2354 -20.1909 24.7591 -20.1909V44.1297ZM12.2013 24.2209C12.2013 12.5143 19.7042 6.78162 21.5752 5.61227C22.856 4.81177 23.7865 4.51887 24.17 4.4175C24.3919 4.35883 24.5451 4.334 24.6298 4.32317C24.7159 4.31215 24.7576 4.31224 24.7591 4.31224V68.6329C35.2354 68.6329 46.2462 66.0429 55.6651 60.156C64.6308 54.5525 76.5219 42.6939 76.5219 24.2209H12.2013ZM24.7591 4.31224C24.7607 4.31224 24.8023 4.31215 24.8884 4.32317C24.9731 4.334 25.1263 4.35883 25.3483 4.4175C25.7317 4.51887 26.6622 4.81177 27.943 5.61227C29.8139 6.78162 37.317 12.5143 37.317 24.2209H-27.0037C-27.0037 42.6939 -15.1125 54.5525 -6.14689 60.156C3.27205 66.0429 14.2828 68.6329 24.7591 68.6329V4.31224Z" fill="#FF7070" fill-opacity="0.5"/>
</g>
<mask id="mask5_1973_60" style="mask-type:alpha" maskUnits="userSpaceOnUse" x="8" y="8" width="34" height="33">
<path d="M16.2372 15.6989C8.58191 23.3541 6.25472 33.4385 11.0392 38.223C15.8238 43.0076 25.9082 40.6804 33.5635 33.0251C41.2187 25.3698 43.5459 15.2854 38.7614 10.5009C33.9769 5.71639 23.8924 8.04357 16.2372 15.6989Z" fill="white"/>
</mask>
<g mask="url(#mask5_1973_60)">
<path d="M33.7799 15.4822C42.0577 23.7601 40.8059 33.1192 40.3098 35.269C39.9702 36.7407 39.5194 37.6058 39.3199 37.9486C39.2044 38.147 39.1137 38.273 39.0614 38.3405C39.0084 38.4092 38.9788 38.4385 38.9777 38.4397L-6.50381 -7.04194C-13.9117 0.365921 -19.8661 9.98313 -22.3637 20.806C-24.741 31.1079 -24.7641 47.9015 -11.7017 60.9639L33.7799 15.4822ZM38.9777 38.4397C38.9766 38.4408 38.9473 38.4702 38.8786 38.5233C38.811 38.5755 38.6851 38.6664 38.4867 38.7818C38.1438 38.9813 37.2788 39.4321 35.8071 39.7718C33.6573 40.2678 24.2982 41.5196 16.0204 33.2418L61.5019 -12.2398C48.4396 -25.3022 31.646 -25.2791 21.344 -22.9017C10.5212 -20.4041 0.904057 -14.4498 -6.50381 -7.04194L38.9777 38.4397ZM16.0204 33.2418C7.74257 24.9639 8.99432 15.6048 9.49036 13.455C9.83004 11.9833 10.2808 11.1183 10.4804 10.7754C10.5958 10.577 10.6866 10.4511 10.7388 10.3835C10.7919 10.3148 10.8213 10.2855 10.8225 10.2844L56.3041 55.766C63.7119 48.3581 69.6663 38.741 72.1638 27.9181C74.5413 17.6161 74.5643 0.822519 61.5019 -12.2398L16.0204 33.2418ZM10.8225 10.2844C10.8236 10.2833 10.8529 10.2538 10.9217 10.2007C10.9892 10.1485 11.1151 10.0577 11.3135 9.94225C11.6563 9.74273 12.5214 9.29192 13.9931 8.95232C16.1429 8.4562 25.502 7.20444 33.7799 15.4822L-11.7017 60.9639C1.36066 74.0262 18.1542 74.0031 28.4562 71.6258C39.279 69.1282 48.8962 63.1738 56.3041 55.766L10.8225 10.2844Z" fill="#FFF970" fill-opacity="0.5"/>
</g>
<mask id="mask6_1973_60" style="mask-type:alpha" maskUnits="userSpaceOnUse" x="8" y="8" width="34" height="33">
<path d="M33.5629 15.6988C25.9077 8.04357 15.8233 5.71637 11.0387 10.5009C6.25422 15.2854 8.58141 25.3699 16.2367 33.0251C23.8919 40.6803 33.9763 43.0075 38.7608 38.223C43.5454 33.4385 41.2182 23.3541 33.5629 15.6988Z" fill="white"/>
</mask>
<g mask="url(#mask6_1973_60)">
<path d="M33.7799 33.2418C25.502 41.5196 16.1429 40.2678 13.9931 39.7718C12.5214 39.4321 11.6563 38.9813 11.3135 38.7818C11.1151 38.6664 10.9892 38.5756 10.9217 38.5233C10.8529 38.4702 10.8236 38.4408 10.8225 38.4397L56.3041 -7.04194C48.8962 -14.4498 39.279 -20.4041 28.4562 -22.9017C18.1542 -25.2791 1.36066 -25.3022 -11.7017 -12.2398L33.7799 33.2418ZM10.8225 38.4397C10.8213 38.4385 10.7919 38.4092 10.7388 38.3405C10.6866 38.2729 10.5958 38.147 10.4804 37.9486C10.2808 37.6058 9.83004 36.7407 9.49036 35.269C8.99432 33.1192 7.74257 23.7601 16.0204 15.4823L61.5019 60.9639C74.5643 47.9014 74.5413 31.1079 72.1638 20.806C69.6663 9.98314 63.7119 0.365921 56.3041 -7.04194L10.8225 38.4397ZM16.0204 15.4823C24.2982 7.20444 33.6573 8.4562 35.8071 8.95233C37.2788 9.29192 38.1438 9.74273 38.4867 9.94225C38.6851 10.0577 38.811 10.1485 38.8786 10.2007C38.9473 10.2538 38.9766 10.2833 38.9777 10.2844L-6.50381 55.766C0.904058 63.1738 10.5212 69.1282 21.344 71.6257C31.646 74.0031 48.4396 74.0262 61.5019 60.9639L16.0204 15.4823ZM38.9777 10.2844C38.9788 10.2856 39.0084 10.3148 39.0614 10.3835C39.1137 10.4511 39.2045 10.577 39.3199 10.7754C39.5194 11.1182 39.9702 11.9833 40.3098 13.455C40.8059 15.6048 42.0577 24.9639 33.7799 33.2418L-11.7017 -12.2398C-24.7641 0.822531 -24.741 17.6161 -22.3637 27.9181C-19.8661 38.741 -13.9117 48.3581 -6.50381 55.766L38.9777 10.2844Z" fill="#70E5FF" fill-opacity="0.5"/>
</g>
<mask id="mask7_1973_60" style="mask-type:alpha" maskUnits="userSpaceOnUse" x="12" y="4" width="26" height="40">
<path d="M12.5078 24.2209C12.5078 35.047 17.993 43.8234 24.7593 43.8234C31.5256 43.8234 37.0109 35.047 37.0109 24.2209C37.0109 13.3948 31.5256 4.61841 24.7593 4.61841C17.993 4.61841 12.5078 13.3948 12.5078 24.2209Z" fill="white"/>
</mask>
<g mask="url(#mask7_1973_60)">
<path d="M24.7593 11.6629C36.4659 11.6629 42.1987 19.1659 43.3681 21.0369C44.1685 22.3177 44.4614 23.2482 44.5628 23.6316C44.6214 23.8536 44.6463 24.0068 44.6571 24.0915C44.6681 24.1776 44.6681 24.2191 44.6681 24.2207H-19.6526C-19.6526 34.697 -17.0626 45.7078 -11.1757 55.1267C-5.57222 64.0924 6.28633 75.9836 24.7593 75.9836V11.6629ZM44.6681 24.2207C44.6681 24.2224 44.6681 24.2639 44.6571 24.35C44.6463 24.4348 44.6214 24.5879 44.5628 24.8099C44.4614 25.1934 44.1685 26.1238 43.3681 27.4046C42.1987 29.2756 36.4659 36.7786 24.7593 36.7786V-27.542C6.28632 -27.542 -5.57223 -15.6509 -11.1757 -6.68521C-17.0626 2.73374 -19.6526 13.7445 -19.6526 24.2207H44.6681ZM24.7593 36.7786C13.0527 36.7786 7.31989 29.2756 6.15054 27.4046C5.35004 26.1238 5.05715 25.1934 4.95578 24.8099C4.89711 24.588 4.87227 24.4348 4.86144 24.35C4.85043 24.264 4.85052 24.2224 4.85052 24.2207H69.1711C69.1711 13.7445 66.5812 2.73373 60.6944 -6.68522C55.0908 -15.6509 43.2323 -27.542 24.7593 -27.542V36.7786ZM4.85052 24.2207C4.85052 24.2191 4.85043 24.1776 4.86144 24.0915C4.87227 24.0068 4.89711 23.8536 4.95578 23.6316C5.05715 23.2482 5.35004 22.3177 6.15054 21.0369C7.31989 19.1659 13.0527 11.6629 24.7593 11.6629V75.9836C43.2323 75.9836 55.0908 64.0924 60.6944 55.1267C66.5812 45.7078 69.1711 34.697 69.1711 24.2207H4.85052Z" fill="#B1EAD5" fill-opacity="0.5"/>
</g>
<mask id="mask8_1973_60" style="mask-type:alpha" maskUnits="userSpaceOnUse" x="5" y="11" width="40" height="26">
<path d="M24.7592 11.9692C13.9331 11.9692 5.15674 17.4544 5.15674 24.2208C5.15674 30.9871 13.9331 36.4723 24.7592 36.4723C35.5854 36.4723 44.3617 30.9871 44.3617 24.2208C44.3617 17.4544 35.5854 11.9692 24.7592 11.9692Z" fill="white"/>
</mask>
<g mask="url(#mask8_1973_60)">
<path d="M37.317 24.2209C37.317 35.9276 29.8139 41.6604 27.943 42.8297C26.6622 43.6302 25.7317 43.9231 25.3483 44.0245C25.1263 44.0831 24.9731 44.108 24.8884 44.1188C24.8023 44.1298 24.7607 44.1297 24.7591 44.1297V-20.1909C14.2828 -20.1909 3.27205 -17.6009 -6.14689 -11.7141C-15.1125 -6.11051 -27.0037 5.74804 -27.0037 24.2209H37.317ZM24.7591 44.1297C24.7576 44.1297 24.7159 44.1298 24.6298 44.1188C24.5451 44.108 24.3919 44.0831 24.17 44.0245C23.7865 43.9231 22.856 43.6302 21.5752 42.8297C19.7042 41.6604 12.2013 35.9276 12.2013 24.2209H76.5219C76.5219 5.74804 64.6308 -6.11051 55.6651 -11.7141C46.2462 -17.6009 35.2354 -20.1909 24.7591 -20.1909V44.1297ZM12.2013 24.2209C12.2013 12.5143 19.7042 6.78162 21.5752 5.61227C22.856 4.81177 23.7865 4.51887 24.17 4.4175C24.3919 4.35883 24.5451 4.334 24.6298 4.32317C24.7159 4.31215 24.7576 4.31224 24.7591 4.31224V68.6329C35.2354 68.6329 46.2462 66.0429 55.6651 60.156C64.6308 54.5525 76.5219 42.6939 76.5219 24.2209H12.2013ZM24.7591 4.31224C24.7607 4.31224 24.8023 4.31215 24.8884 4.32317C24.9731 4.334 25.1263 4.35883 25.3483 4.4175C25.7317 4.51887 26.6622 4.81177 27.943 5.61227C29.8139 6.78162 37.317 12.5143 37.317 24.2209H-27.0037C-27.0037 42.6939 -15.1125 54.5525 -6.14689 60.156C3.27205 66.0429 14.2828 68.6329 24.7591 68.6329V4.31224Z" fill="#FF7070" fill-opacity="0.5"/>
</g>
<mask id="mask9_1973_60" style="mask-type:alpha" maskUnits="userSpaceOnUse" x="8" y="8" width="34" height="33">
<path d="M16.2372 15.6989C8.58191 23.3541 6.25472 33.4385 11.0392 38.223C15.8238 43.0076 25.9082 40.6804 33.5635 33.0251C41.2187 25.3698 43.5459 15.2854 38.7614 10.5009C33.9769 5.71639 23.8924 8.04357 16.2372 15.6989Z" fill="white"/>
</mask>
<g mask="url(#mask9_1973_60)">
<path d="M33.7799 15.4822C42.0577 23.7601 40.8059 33.1192 40.3098 35.269C39.9702 36.7407 39.5194 37.6058 39.3199 37.9486C39.2044 38.147 39.1137 38.273 39.0614 38.3405C39.0084 38.4092 38.9788 38.4385 38.9777 38.4397L-6.50381 -7.04194C-13.9117 0.365921 -19.8661 9.98313 -22.3637 20.806C-24.741 31.1079 -24.7641 47.9015 -11.7017 60.9639L33.7799 15.4822ZM38.9777 38.4397C38.9766 38.4408 38.9473 38.4702 38.8786 38.5233C38.811 38.5755 38.6851 38.6664 38.4867 38.7818C38.1438 38.9813 37.2788 39.4321 35.8071 39.7718C33.6573 40.2678 24.2982 41.5196 16.0204 33.2418L61.5019 -12.2398C48.4396 -25.3022 31.646 -25.2791 21.344 -22.9017C10.5212 -20.4041 0.904057 -14.4498 -6.50381 -7.04194L38.9777 38.4397ZM16.0204 33.2418C7.74257 24.9639 8.99432 15.6048 9.49036 13.455C9.83004 11.9833 10.2808 11.1183 10.4804 10.7754C10.5958 10.577 10.6866 10.4511 10.7388 10.3835C10.7919 10.3148 10.8213 10.2855 10.8225 10.2844L56.3041 55.766C63.7119 48.3581 69.6663 38.741 72.1638 27.9181C74.5413 17.6161 74.5643 0.822519 61.5019 -12.2398L16.0204 33.2418ZM10.8225 10.2844C10.8236 10.2833 10.8529 10.2538 10.9217 10.2007C10.9892 10.1485 11.1151 10.0577 11.3135 9.94225C11.6563 9.74273 12.5214 9.29192 13.9931 8.95232C16.1429 8.4562 25.502 7.20444 33.7799 15.4822L-11.7017 60.9639C1.36066 74.0262 18.1542 74.0031 28.4562 71.6258C39.279 69.1282 48.8962 63.1738 56.3041 55.766L10.8225 10.2844Z" fill="#FFF970" fill-opacity="0.5"/>
</g>
<mask id="mask10_1973_60" style="mask-type:alpha" maskUnits="userSpaceOnUse" x="8" y="8" width="34" height="33">
<path d="M33.5629 15.6988C25.9077 8.04357 15.8233 5.71637 11.0387 10.5009C6.25422 15.2854 8.58141 25.3699 16.2367 33.0251C23.8919 40.6803 33.9763 43.0075 38.7608 38.223C43.5454 33.4385 41.2182 23.3541 33.5629 15.6988Z" fill="white"/>
</mask>
<g mask="url(#mask10_1973_60)">
<path d="M33.7799 33.2418C25.502 41.5196 16.1429 40.2678 13.9931 39.7718C12.5214 39.4321 11.6563 38.9813 11.3135 38.7818C11.1151 38.6664 10.9892 38.5756 10.9217 38.5233C10.8529 38.4702 10.8236 38.4408 10.8225 38.4397L56.3041 -7.04194C48.8962 -14.4498 39.279 -20.4041 28.4562 -22.9017C18.1542 -25.2791 1.36066 -25.3022 -11.7017 -12.2398L33.7799 33.2418ZM10.8225 38.4397C10.8213 38.4385 10.7919 38.4092 10.7388 38.3405C10.6866 38.2729 10.5958 38.147 10.4804 37.9486C10.2808 37.6058 9.83004 36.7407 9.49036 35.269C8.99432 33.1192 7.74257 23.7601 16.0204 15.4823L61.5019 60.9639C74.5643 47.9014 74.5413 31.1079 72.1638 20.806C69.6663 9.98314 63.7119 0.365921 56.3041 -7.04194L10.8225 38.4397ZM16.0204 15.4823C24.2982 7.20444 33.6573 8.4562 35.8071 8.95233C37.2788 9.29192 38.1438 9.74273 38.4867 9.94225C38.6851 10.0577 38.811 10.1485 38.8786 10.2007C38.9473 10.2538 38.9766 10.2833 38.9777 10.2844L-6.50381 55.766C0.904058 63.1738 10.5212 69.1282 21.344 71.6257C31.646 74.0031 48.4396 74.0262 61.5019 60.9639L16.0204 15.4823ZM38.9777 10.2844C38.9788 10.2856 39.0084 10.3148 39.0614 10.3835C39.1137 10.4511 39.2045 10.577 39.3199 10.7754C39.5194 11.1182 39.9702 11.9833 40.3098 13.455C40.8059 15.6048 42.0577 24.9639 33.7799 33.2418L-11.7017 -12.2398C-24.7641 0.822531 -24.741 17.6161 -22.3637 27.9181C-19.8661 38.741 -13.9117 48.3581 -6.50381 55.766L38.9777 10.2844Z" fill="#70E5FF" fill-opacity="0.5"/>
</g>
<mask id="mask11_1973_60" style="mask-type:alpha" maskUnits="userSpaceOnUse" x="12" y="4" width="26" height="40">
<path d="M12.5078 24.2209C12.5078 35.047 17.993 43.8234 24.7593 43.8234C31.5256 43.8234 37.0109 35.047 37.0109 24.2209C37.0109 13.3948 31.5256 4.61841 24.7593 4.61841C17.993 4.61841 12.5078 13.3948 12.5078 24.2209Z" fill="white"/>
</mask>
<g mask="url(#mask11_1973_60)">
<path d="M24.7593 11.6629C36.4659 11.6629 42.1987 19.1659 43.3681 21.0369C44.1685 22.3177 44.4614 23.2482 44.5628 23.6316C44.6214 23.8536 44.6463 24.0068 44.6571 24.0915C44.6681 24.1776 44.6681 24.2191 44.6681 24.2207H-19.6526C-19.6526 34.697 -17.0626 45.7078 -11.1757 55.1267C-5.57222 64.0924 6.28633 75.9836 24.7593 75.9836V11.6629ZM44.6681 24.2207C44.6681 24.2224 44.6681 24.2639 44.6571 24.35C44.6463 24.4348 44.6214 24.5879 44.5628 24.8099C44.4614 25.1934 44.1685 26.1238 43.3681 27.4046C42.1987 29.2756 36.4659 36.7786 24.7593 36.7786V-27.542C6.28632 -27.542 -5.57223 -15.6509 -11.1757 -6.68521C-17.0626 2.73374 -19.6526 13.7445 -19.6526 24.2207H44.6681ZM24.7593 36.7786C13.0527 36.7786 7.31989 29.2756 6.15054 27.4046C5.35004 26.1238 5.05715 25.1934 4.95578 24.8099C4.89711 24.588 4.87227 24.4348 4.86144 24.35C4.85043 24.264 4.85052 24.2224 4.85052 24.2207H69.1711C69.1711 13.7445 66.5812 2.73373 60.6944 -6.68522C55.0908 -15.6509 43.2323 -27.542 24.7593 -27.542V36.7786ZM4.85052 24.2207C4.85052 24.2191 4.85043 24.1776 4.86144 24.0915C4.87227 24.0068 4.89711 23.8536 4.95578 23.6316C5.05715 23.2482 5.35004 22.3177 6.15054 21.0369C7.31989 19.1659 13.0527 11.6629 24.7593 11.6629V75.9836C43.2323 75.9836 55.0908 64.0924 60.6944 55.1267C66.5812 45.7078 69.1711 34.697 69.1711 24.2207H4.85052Z" fill="#B1EAD5" fill-opacity="0.5"/>
</g>
<mask id="mask12_1973_60" style="mask-type:alpha" maskUnits="userSpaceOnUse" x="5" y="11" width="40" height="26">
<path d="M24.7592 11.9692C13.9331 11.9692 5.15674 17.4544 5.15674 24.2208C5.15674 30.9871 13.9331 36.4723 24.7592 36.4723C35.5854 36.4723 44.3617 30.9871 44.3617 24.2208C44.3617 17.4544 35.5854 11.9692 24.7592 11.9692Z" fill="white"/>
</mask>
<g mask="url(#mask12_1973_60)">
<path d="M37.317 24.2209C37.317 35.9276 29.8139 41.6604 27.943 42.8297C26.6622 43.6302 25.7317 43.9231 25.3483 44.0245C25.1263 44.0831 24.9731 44.108 24.8884 44.1188C24.8023 44.1298 24.7607 44.1297 24.7591 44.1297V-20.1909C14.2828 -20.1909 3.27205 -17.6009 -6.14689 -11.7141C-15.1125 -6.11051 -27.0037 5.74804 -27.0037 24.2209H37.317ZM24.7591 44.1297C24.7576 44.1297 24.7159 44.1298 24.6298 44.1188C24.5451 44.108 24.3919 44.0831 24.17 44.0245C23.7865 43.9231 22.856 43.6302 21.5752 42.8297C19.7042 41.6604 12.2013 35.9276 12.2013 24.2209H76.5219C76.5219 5.74804 64.6308 -6.11051 55.6651 -11.7141C46.2462 -17.6009 35.2354 -20.1909 24.7591 -20.1909V44.1297ZM12.2013 24.2209C12.2013 12.5143 19.7042 6.78162 21.5752 5.61227C22.856 4.81177 23.7865 4.51887 24.17 4.4175C24.3919 4.35883 24.5451 4.334 24.6298 4.32317C24.7159 4.31215 24.7576 4.31224 24.7591 4.31224V68.6329C35.2354 68.6329 46.2462 66.0429 55.6651 60.156C64.6308 54.5525 76.5219 42.6939 76.5219 24.2209H12.2013ZM24.7591 4.31224C24.7607 4.31224 24.8023 4.31215 24.8884 4.32317C24.9731 4.334 25.1263 4.35883 25.3483 4.4175C25.7317 4.51887 26.6622 4.81177 27.943 5.61227C29.8139 6.78162 37.317 12.5143 37.317 24.2209H-27.0037C-27.0037 42.6939 -15.1125 54.5525 -6.14689 60.156C3.27205 66.0429 14.2828 68.6329 24.7591 68.6329V4.31224Z" fill="#FF7070" fill-opacity="0.5"/>
</g>
<mask id="mask13_1973_60" style="mask-type:alpha" maskUnits="userSpaceOnUse" x="8" y="8" width="34" height="33">
<path d="M16.2372 15.6989C8.58191 23.3541 6.25472 33.4385 11.0392 38.223C15.8238 43.0076 25.9082 40.6804 33.5635 33.0251C41.2187 25.3698 43.5459 15.2854 38.7614 10.5009C33.9769 5.71639 23.8924 8.04357 16.2372 15.6989Z" fill="white"/>
</mask>
<g mask="url(#mask13_1973_60)">
<path d="M33.7799 15.4822C42.0577 23.7601 40.8059 33.1192 40.3098 35.269C39.9702 36.7407 39.5194 37.6058 39.3199 37.9486C39.2044 38.147 39.1137 38.273 39.0614 38.3405C39.0084 38.4092 38.9788 38.4385 38.9777 38.4397L-6.50381 -7.04194C-13.9117 0.365921 -19.8661 9.98313 -22.3637 20.806C-24.741 31.1079 -24.7641 47.9015 -11.7017 60.9639L33.7799 15.4822ZM38.9777 38.4397C38.9766 38.4408 38.9473 38.4702 38.8786 38.5233C38.811 38.5755 38.6851 38.6664 38.4867 38.7818C38.1438 38.9813 37.2788 39.4321 35.8071 39.7718C33.6573 40.2678 24.2982 41.5196 16.0204 33.2418L61.5019 -12.2398C48.4396 -25.3022 31.646 -25.2791 21.344 -22.9017C10.5212 -20.4041 0.904057 -14.4498 -6.50381 -7.04194L38.9777 38.4397ZM16.0204 33.2418C7.74257 24.9639 8.99432 15.6048 9.49036 13.455C9.83004 11.9833 10.2808 11.1183 10.4804 10.7754C10.5958 10.577 10.6866 10.4511 10.7388 10.3835C10.7919 10.3148 10.8213 10.2855 10.8225 10.2844L56.3041 55.766C63.7119 48.3581 69.6663 38.741 72.1638 27.9181C74.5413 17.6161 74.5643 0.822519 61.5019 -12.2398L16.0204 33.2418ZM10.8225 10.2844C10.8236 10.2833 10.8529 10.2538 10.9217 10.2007C10.9892 10.1485 11.1151 10.0577 11.3135 9.94225C11.6563 9.74273 12.5214 9.29192 13.9931 8.95232C16.1429 8.4562 25.502 7.20444 33.7799 15.4822L-11.7017 60.9639C1.36066 74.0262 18.1542 74.0031 28.4562 71.6258C39.279 69.1282 48.8962 63.1738 56.3041 55.766L10.8225 10.2844Z" fill="#FFF970" fill-opacity="0.5"/>
</g>
<mask id="mask14_1973_60" style="mask-type:alpha" maskUnits="userSpaceOnUse" x="8" y="8" width="34" height="33">
<path d="M33.5629 15.6988C25.9077 8.04357 15.8233 5.71637 11.0387 10.5009C6.25422 15.2854 8.58141 25.3699 16.2367 33.0251C23.8919 40.6803 33.9763 43.0075 38.7608 38.223C43.5454 33.4385 41.2182 23.3541 33.5629 15.6988Z" fill="white"/>
</mask>
<g mask="url(#mask14_1973_60)">
<path d="M33.7799 33.2418C25.502 41.5196 16.1429 40.2678 13.9931 39.7718C12.5214 39.4321 11.6563 38.9813 11.3135 38.7818C11.1151 38.6664 10.9892 38.5756 10.9217 38.5233C10.8529 38.4702 10.8236 38.4408 10.8225 38.4397L56.3041 -7.04194C48.8962 -14.4498 39.279 -20.4041 28.4562 -22.9017C18.1542 -25.2791 1.36066 -25.3022 -11.7017 -12.2398L33.7799 33.2418ZM10.8225 38.4397C10.8213 38.4385 10.7919 38.4092 10.7388 38.3405C10.6866 38.2729 10.5958 38.147 10.4804 37.9486C10.2808 37.6058 9.83004 36.7407 9.49036 35.269C8.99432 33.1192 7.74257 23.7601 16.0204 15.4823L61.5019 60.9639C74.5643 47.9014 74.5413 31.1079 72.1638 20.806C69.6663 9.98314 63.7119 0.365921 56.3041 -7.04194L10.8225 38.4397ZM16.0204 15.4823C24.2982 7.20444 33.6573 8.4562 35.8071 8.95233C37.2788 9.29192 38.1438 9.74273 38.4867 9.94225C38.6851 10.0577 38.811 10.1485 38.8786 10.2007C38.9473 10.2538 38.9766 10.2833 38.9777 10.2844L-6.50381 55.766C0.904058 63.1738 10.5212 69.1282 21.344 71.6257C31.646 74.0031 48.4396 74.0262 61.5019 60.9639L16.0204 15.4823ZM38.9777 10.2844C38.9788 10.2856 39.0084 10.3148 39.0614 10.3835C39.1137 10.4511 39.2045 10.577 39.3199 10.7754C39.5194 11.1182 39.9702 11.9833 40.3098 13.455C40.8059 15.6048 42.0577 24.9639 33.7799 33.2418L-11.7017 -12.2398C-24.7641 0.822531 -24.741 17.6161 -22.3637 27.9181C-19.8661 38.741 -13.9117 48.3581 -6.50381 55.766L38.9777 10.2844Z" fill="#70E5FF" fill-opacity="0.5"/>
</g>
<mask id="mask15_1973_60" style="mask-type:alpha" maskUnits="userSpaceOnUse" x="12" y="4" width="26" height="40">
<path d="M12.5078 24.2209C12.5078 35.047 17.993 43.8234 24.7593 43.8234C31.5256 43.8234 37.0109 35.047 37.0109 24.2209C37.0109 13.3948 31.5256 4.61841 24.7593 4.61841C17.993 4.61841 12.5078 13.3948 12.5078 24.2209Z" fill="white"/>
</mask>
<g mask="url(#mask15_1973_60)">
<path d="M24.7593 11.6629C36.4659 11.6629 42.1987 19.1659 43.3681 21.0369C44.1685 22.3177 44.4614 23.2482 44.5628 23.6316C44.6214 23.8536 44.6463 24.0068 44.6571 24.0915C44.6681 24.1776 44.6681 24.2191 44.6681 24.2207H-19.6526C-19.6526 34.697 -17.0626 45.7078 -11.1757 55.1267C-5.57222 64.0924 6.28633 75.9836 24.7593 75.9836V11.6629ZM44.6681 24.2207C44.6681 24.2224 44.6681 24.2639 44.6571 24.35C44.6463 24.4348 44.6214 24.5879 44.5628 24.8099C44.4614 25.1934 44.1685 26.1238 43.3681 27.4046C42.1987 29.2756 36.4659 36.7786 24.7593 36.7786V-27.542C6.28632 -27.542 -5.57223 -15.6509 -11.1757 -6.68521C-17.0626 2.73374 -19.6526 13.7445 -19.6526 24.2207H44.6681ZM24.7593 36.7786C13.0527 36.7786 7.31989 29.2756 6.15054 27.4046C5.35004 26.1238 5.05715 25.1934 4.95578 24.8099C4.89711 24.588 4.87227 24.4348 4.86144 24.35C4.85043 24.264 4.85052 24.2224 4.85052 24.2207H69.1711C69.1711 13.7445 66.5812 2.73373 60.6944 -6.68522C55.0908 -15.6509 43.2323 -27.542 24.7593 -27.542V36.7786ZM4.85052 24.2207C4.85052 24.2191 4.85043 24.1776 4.86144 24.0915C4.87227 24.0068 4.89711 23.8536 4.95578 23.6316C5.05715 23.2482 5.35004 22.3177 6.15054 21.0369C7.31989 19.1659 13.0527 11.6629 24.7593 11.6629V75.9836C43.2323 75.9836 55.0908 64.0924 60.6944 55.1267C66.5812 45.7078 69.1711 34.697 69.1711 24.2207H4.85052Z" fill="#B1EAD5" fill-opacity="0.5"/>
</g>
<path d="M84.3798 32.5574V44.8496H80.1657C80.1466 44.6491 80.1116 44.4486 80.1116 44.248C80.1116 37.7391 80.0893 31.2334 80.1147 24.7244C80.1339 19.9629 82.2089 16.363 86.6048 14.4342C93.696 11.3246 101.714 15.4623 102.589 23.2253C103.432 30.7241 97.8177 36.3514 90.2298 35.5525C88.2976 35.3488 86.9169 34.6008 84.3798 32.5574ZM98.3814 24.5621C98.4032 20.6121 95.3701 17.4961 91.4774 17.4738C87.4927 17.4516 84.4274 20.5134 84.383 24.5621C84.3419 28.3942 87.4548 31.5834 91.271 31.628C95.2427 31.6725 98.3556 28.5756 98.3814 24.5621Z" fill="black"/>
<path d="M156.447 35.0686H152.423V31.7012C151.551 32.4969 150.788 33.4327 149.82 34.0438C144.259 37.5608 137.139 35.0782 134.651 28.8144C131.801 21.6433 136.588 14.0332 144.288 13.4634C150.806 12.9828 156.409 17.4643 156.491 24.6575C156.53 27.9613 156.497 31.2651 156.497 34.569C156.497 34.7217 156.469 34.8745 156.45 35.0655L156.447 35.0686ZM145.179 17.4419C141.28 17.4324 138.101 20.5261 138.142 24.4952C138.184 28.4356 141.063 31.5707 145.157 31.5803C149.164 31.5898 152.188 28.5565 152.178 24.5207C152.172 20.4403 149.129 17.4515 145.179 17.4452V17.4419Z" fill="black"/>
<path d="M61.1068 29.1039C61.336 29.4253 61.5142 29.715 61.7307 29.9727C63.4303 32.0352 66.9028 32.6464 69.2453 31.3223C70.1589 30.8067 70.6458 30.0587 70.6108 29.002C70.5758 27.9771 69.9074 27.3883 69.0417 27.121C67.3548 26.5989 65.6232 26.217 63.9268 25.7172C62.9911 25.4404 62.0553 25.1189 61.1864 24.686C57.6343 22.9132 57.7584 17.9479 60.2124 15.7549C62.8892 13.3646 66.0148 13.0464 69.3536 13.9216C71.5211 14.4881 73.1921 15.7327 74.3125 17.7506C73.2271 18.3649 72.1736 18.9633 71.1232 19.5585C69.1817 17.0535 66.3012 16.3724 63.9204 17.8238C62.3354 18.7914 62.2845 20.8602 63.9586 21.6146C65.41 22.2671 67.0333 22.5344 68.5611 23.0341C69.8597 23.4606 71.1837 23.8648 72.4028 24.476C75.4137 25.9847 75.5092 30.3515 73.6982 32.5572C72.1895 34.3938 70.2066 35.2818 67.9245 35.5077C64.8849 35.8069 61.9789 35.4122 59.6427 33.1875C58.9648 32.5414 58.4428 31.7329 57.7966 30.9404C58.9711 30.291 60.0246 29.7054 61.1036 29.107L61.1068 29.1039Z" fill="black"/>
<path d="M173.881 30.8705C174.948 30.2785 176.005 29.6961 177.112 29.0817C177.87 30.53 178.974 31.5199 180.556 31.819C182.252 32.1405 183.956 32.1691 185.448 31.1283C187.119 29.9634 186.979 27.9455 185.098 27.1879C183.64 26.5991 182.052 26.3413 180.537 25.8862C179.401 25.5456 178.233 25.2337 177.176 24.7149C174.136 23.2189 173.907 19.8005 174.91 17.5471C175.763 15.6278 177.319 14.4916 179.296 13.9473C182.682 13.0147 185.862 13.403 188.625 15.717C189.261 16.2485 189.732 16.9742 190.344 17.6871C189.169 18.3555 188.099 18.9634 187.036 19.565C185.231 17.0983 182.246 16.3726 179.907 17.7762C179.079 18.2728 178.662 18.9858 178.662 19.9279C178.662 20.8446 179.248 21.427 180.018 21.7103C181.253 22.1622 182.539 22.4837 183.802 22.8593C185.015 23.2221 186.26 23.5117 187.438 23.9637C191.75 25.6252 191.843 31.1411 188.532 33.6587C186.114 35.4984 183.385 35.8326 180.477 35.4316C177.656 35.0401 175.454 33.7224 174.031 31.2111C173.981 31.122 173.945 31.0201 173.878 30.8674L173.881 30.8705Z" fill="black"/>
<path d="M163.582 4.21387H167.768V35.0463H163.582V4.21387Z" fill="black"/>
<path d="M124.004 35.0656H119.822C119.802 34.8491 119.764 34.6232 119.764 34.3971C119.761 30.2435 119.745 26.0931 119.764 21.9395C119.786 18.1041 121.738 15.1791 125.077 13.9919C127.168 13.247 129.284 13.3585 131.394 13.9823C131.903 14.1319 132.094 14.3992 132.069 14.9531C132.019 16.0862 132.053 17.2193 132.053 18.2696C130.952 18.0468 129.889 17.7062 128.806 17.6362C126.159 17.4644 124.274 19.1449 124.106 21.7994C123.998 23.5118 124.016 25.2337 124.004 26.9524C123.988 29.3587 124.001 31.765 124.001 34.1712V35.0656H124.004Z" fill="black"/>
<path d="M108.464 13.9248H112.63V35.0559H108.464V13.9248Z" fill="black"/>
<path d="M110.536 9.68529C108.983 9.67892 107.719 8.39618 107.739 6.83978C107.758 5.34701 109.037 4.05477 110.523 4.0325C112.016 4.01022 113.322 5.36293 113.305 6.9098C113.289 8.45989 112.064 9.68843 110.536 9.68206V9.68529Z" fill="black"/>
</g>
<defs>
<clipPath id="clip0_1973_60">
<rect width="190.323" height="50" fill="white" transform="translate(0.538574)"/>
</clipPath>
</defs>
</svg>
