<svg width="191" height="50" viewBox="0 0 191 50" fill="none" xmlns="http://www.w3.org/2000/svg">
<g clip-path="url(#clip0_2025_3009)">
<mask id="mask0_2025_3009" style="mask-type:alpha" maskUnits="userSpaceOnUse" x="4" y="11" width="40" height="26">
<path d="M24.2206 11.9692C13.3945 11.9692 4.61816 17.4544 4.61816 24.2208C4.61816 30.9871 13.3945 36.4723 24.2206 36.4723C35.0469 36.4723 43.8232 30.9871 43.8232 24.2208C43.8232 17.4544 35.0469 11.9692 24.2206 11.9692Z" fill="white"/>
</mask>
<g mask="url(#mask0_2025_3009)">
<path d="M36.7782 24.2209C36.7782 35.9276 29.2751 41.6604 27.4042 42.8297C26.1234 43.6302 25.1929 43.9231 24.8095 44.0245C24.5875 44.0831 24.4343 44.108 24.3496 44.1188C24.2635 44.1298 24.2219 44.1297 24.2203 44.1297V-20.1909C13.744 -20.1909 2.73323 -17.6009 -6.68571 -11.7141C-15.6513 -6.11051 -27.5425 5.74804 -27.5425 24.2209H36.7782ZM24.2203 44.1297C24.2187 44.1297 24.1771 44.1298 24.091 44.1188C24.0063 44.108 23.8531 44.0831 23.6312 44.0245C23.2477 43.9231 22.3172 43.6302 21.0364 42.8297C19.1654 41.6604 11.6624 35.9276 11.6624 24.2209H75.9831C75.9831 5.74804 64.092 -6.11051 55.1263 -11.7141C45.7074 -17.6009 34.6966 -20.1909 24.2203 -20.1909V44.1297ZM11.6624 24.2209C11.6624 12.5143 19.1654 6.78162 21.0364 5.61227C22.3172 4.81177 23.2477 4.51887 23.6312 4.4175C23.8531 4.35883 24.0063 4.334 24.091 4.32317C24.1771 4.31215 24.2187 4.31224 24.2203 4.31224V68.6329C34.6966 68.6329 45.7074 66.0429 55.1263 60.156C64.092 54.5525 75.9831 42.6939 75.9831 24.2209H11.6624ZM24.2203 4.31224C24.2219 4.31224 24.2635 4.31215 24.3496 4.32317C24.4343 4.334 24.5875 4.35883 24.8095 4.4175C25.1929 4.51887 26.1234 4.81177 27.4042 5.61227C29.2751 6.78162 36.7782 12.5143 36.7782 24.2209H-27.5425C-27.5425 42.6939 -15.6513 54.5525 -6.68571 60.156C2.73323 66.0429 13.744 68.6329 24.2203 68.6329V4.31224Z" fill="#FF7070" fill-opacity="0.5"/>
</g>
<mask id="mask1_2025_3009" style="mask-type:alpha" maskUnits="userSpaceOnUse" x="8" y="8" width="33" height="33">
<path d="M15.6989 15.6989C8.04358 23.3541 5.71639 33.4385 10.5009 38.223C15.2855 43.0076 25.3698 40.6804 33.0251 33.0251C40.6804 25.3698 43.0076 15.2854 38.223 10.5009C33.4385 5.71639 23.3541 8.04357 15.6989 15.6989Z" fill="white"/>
</mask>
<g mask="url(#mask1_2025_3009)">
<path d="M33.2416 15.4822C41.5194 23.7601 40.2676 33.1192 39.7715 35.269C39.4319 36.7407 38.9811 37.6058 38.7816 37.9486C38.6661 38.147 38.5753 38.273 38.5231 38.3405C38.47 38.4092 38.4405 38.4385 38.4394 38.4397L-7.04214 -7.04194C-14.45 0.365921 -20.4044 9.98313 -22.902 20.806C-25.2793 31.1079 -25.3024 47.9015 -12.2401 60.9639L33.2416 15.4822ZM38.4394 38.4397C38.4382 38.4408 38.409 38.4702 38.3403 38.5233C38.2727 38.5755 38.1468 38.6664 37.9484 38.7818C37.6055 38.9813 36.7405 39.4321 35.2688 39.7718C33.119 40.2678 23.7599 41.5196 15.482 33.2418L60.9636 -12.2398C47.9012 -25.3022 31.1077 -25.2791 20.8057 -22.9017C9.98284 -20.4041 0.365726 -14.4498 -7.04214 -7.04194L38.4394 38.4397ZM15.482 33.2418C7.20424 24.9639 8.45599 15.6048 8.95203 13.455C9.29171 11.9833 9.74252 11.1183 9.94203 10.7754C10.0574 10.577 10.1482 10.4511 10.2005 10.3835C10.2536 10.3148 10.283 10.2855 10.2841 10.2844L55.7657 55.766C63.1736 48.3581 69.1279 38.741 71.6255 27.9181C74.0029 17.6161 74.026 0.822519 60.9636 -12.2398L15.482 33.2418ZM10.2841 10.2844C10.2853 10.2833 10.3146 10.2538 10.3833 10.2007C10.4508 10.1485 10.5768 10.0577 10.7752 9.94225C11.118 9.74273 11.9831 9.29192 13.4548 8.95232C15.6046 8.4562 24.9636 7.20444 33.2416 15.4822L-12.2401 60.9639C0.822332 74.0262 17.6159 74.0031 27.9178 71.6258C38.7407 69.1282 48.3578 63.1738 55.7657 55.766L10.2841 10.2844Z" fill="#FFF970" fill-opacity="0.5"/>
</g>
<mask id="mask2_2025_3009" style="mask-type:alpha" maskUnits="userSpaceOnUse" x="8" y="8" width="33" height="33">
<path d="M33.0241 15.6988C25.3689 8.04357 15.2844 5.71637 10.4999 10.5009C5.7154 15.2854 8.04259 25.3699 15.6978 33.0251C23.3531 40.6803 33.4375 43.0075 38.222 38.223C43.0065 33.4385 40.6794 23.3541 33.0241 15.6988Z" fill="white"/>
</mask>
<g mask="url(#mask2_2025_3009)">
<path d="M33.2411 33.2418C24.9632 41.5196 15.6041 40.2678 13.4543 39.7718C11.9826 39.4321 11.1175 38.9813 10.7747 38.7818C10.5763 38.6664 10.4504 38.5756 10.3828 38.5233C10.3141 38.4702 10.2848 38.4408 10.2836 38.4397L55.7653 -7.04194C48.3574 -14.4498 38.7402 -20.4041 27.9174 -22.9017C17.6154 -25.2791 0.821844 -25.3022 -12.2406 -12.2398L33.2411 33.2418ZM10.2836 38.4397C10.2825 38.4385 10.2531 38.4092 10.2 38.3405C10.1478 38.2729 10.0569 38.147 9.94154 37.9486C9.74203 37.6058 9.29122 36.7407 8.95155 35.269C8.4555 33.1192 7.20375 23.7601 15.4815 15.4823L60.9631 60.9639C74.0255 47.9014 74.0024 31.1079 71.625 20.806C69.1274 9.98314 63.1731 0.365921 55.7653 -7.04194L10.2836 38.4397ZM15.4815 15.4823C23.7594 7.20444 33.1185 8.4562 35.2683 8.95233C36.74 9.29192 37.605 9.74273 37.9479 9.94225C38.1463 10.0577 38.2722 10.1485 38.3398 10.2007C38.4085 10.2538 38.4378 10.2833 38.4389 10.2844L-7.04262 55.766C0.36524 63.1738 9.98235 69.1282 20.8052 71.6257C31.1072 74.0031 47.9007 74.0262 60.9631 60.9639L15.4815 15.4823ZM38.4389 10.2844C38.44 10.2856 38.4695 10.3148 38.5226 10.3835C38.5749 10.4511 38.6657 10.577 38.7811 10.7754C38.9806 11.1182 39.4314 11.9833 39.771 13.455C40.2671 15.6048 41.5189 24.9639 33.2411 33.2418L-12.2406 -12.2398C-25.3029 0.822531 -25.2798 17.6161 -22.9025 27.9181C-20.4049 38.741 -14.4505 48.3581 -7.04262 55.766L38.4389 10.2844Z" fill="#70E5FF" fill-opacity="0.5"/>
</g>
<mask id="mask3_2025_3009" style="mask-type:alpha" maskUnits="userSpaceOnUse" x="11" y="4" width="26" height="40">
<path d="M11.9692 24.2209C11.9692 35.047 17.4544 43.8234 24.2208 43.8234C30.9871 43.8234 36.4723 35.047 36.4723 24.2209C36.4723 13.3948 30.9871 4.61841 24.2208 4.61841C17.4544 4.61841 11.9692 13.3948 11.9692 24.2209Z" fill="white"/>
</mask>
<g mask="url(#mask3_2025_3009)">
<path d="M24.2205 11.6629C35.9271 11.6629 41.6599 19.1659 42.8292 21.0369C43.6297 22.3177 43.9226 23.2482 44.024 23.6316C44.0826 23.8536 44.1075 24.0068 44.1183 24.0915C44.1293 24.1776 44.1292 24.2191 44.1292 24.2207H-20.1914C-20.1914 34.697 -17.6014 45.7078 -11.7146 55.1267C-6.11104 64.0924 5.74751 75.9836 24.2205 75.9836V11.6629ZM44.1292 24.2207C44.1292 24.2224 44.1293 24.2639 44.1183 24.35C44.1075 24.4348 44.0826 24.5879 44.024 24.8099C43.9226 25.1934 43.6297 26.1238 42.8292 27.4046C41.6599 29.2756 35.9271 36.7786 24.2205 36.7786V-27.542C5.7475 -27.542 -6.11105 -15.6509 -11.7146 -6.68521C-17.6014 2.73374 -20.1914 13.7445 -20.1914 24.2207H44.1292ZM24.2205 36.7786C12.5138 36.7786 6.78107 29.2756 5.61172 27.4046C4.81122 26.1238 4.51834 25.1934 4.41696 24.8099C4.3583 24.588 4.33346 24.4348 4.32263 24.35C4.31161 24.264 4.3117 24.2224 4.3117 24.2207H68.6323C68.6323 13.7445 66.0424 2.73373 60.1555 -6.68522C54.552 -15.6509 42.6934 -27.542 24.2205 -27.542V36.7786ZM4.3117 24.2207C4.3117 24.2191 4.31161 24.1776 4.32263 24.0915C4.33346 24.0068 4.3583 23.8536 4.41696 23.6316C4.51834 23.2482 4.81122 22.3177 5.61172 21.0369C6.78107 19.1659 12.5138 11.6629 24.2205 11.6629V75.9836C42.6934 75.9836 54.552 64.0924 60.1555 55.1267C66.0424 45.7078 68.6323 34.697 68.6323 24.2207H4.3117Z" fill="#B1EAD5" fill-opacity="0.5"/>
</g>
<mask id="mask4_2025_3009" style="mask-type:alpha" maskUnits="userSpaceOnUse" x="4" y="11" width="40" height="26">
<path d="M24.2206 11.9692C13.3945 11.9692 4.61816 17.4544 4.61816 24.2208C4.61816 30.9871 13.3945 36.4723 24.2206 36.4723C35.0469 36.4723 43.8232 30.9871 43.8232 24.2208C43.8232 17.4544 35.0469 11.9692 24.2206 11.9692Z" fill="white"/>
</mask>
<g mask="url(#mask4_2025_3009)">
<path d="M36.7782 24.2209C36.7782 35.9276 29.2751 41.6604 27.4042 42.8297C26.1234 43.6302 25.1929 43.9231 24.8095 44.0245C24.5875 44.0831 24.4343 44.108 24.3496 44.1188C24.2635 44.1298 24.2219 44.1297 24.2203 44.1297V-20.1909C13.744 -20.1909 2.73323 -17.6009 -6.68571 -11.7141C-15.6513 -6.11051 -27.5425 5.74804 -27.5425 24.2209H36.7782ZM24.2203 44.1297C24.2187 44.1297 24.1771 44.1298 24.091 44.1188C24.0063 44.108 23.8531 44.0831 23.6312 44.0245C23.2477 43.9231 22.3172 43.6302 21.0364 42.8297C19.1654 41.6604 11.6624 35.9276 11.6624 24.2209H75.9831C75.9831 5.74804 64.092 -6.11051 55.1263 -11.7141C45.7074 -17.6009 34.6966 -20.1909 24.2203 -20.1909V44.1297ZM11.6624 24.2209C11.6624 12.5143 19.1654 6.78162 21.0364 5.61227C22.3172 4.81177 23.2477 4.51887 23.6312 4.4175C23.8531 4.35883 24.0063 4.334 24.091 4.32317C24.1771 4.31215 24.2187 4.31224 24.2203 4.31224V68.6329C34.6966 68.6329 45.7074 66.0429 55.1263 60.156C64.092 54.5525 75.9831 42.6939 75.9831 24.2209H11.6624ZM24.2203 4.31224C24.2219 4.31224 24.2635 4.31215 24.3496 4.32317C24.4343 4.334 24.5875 4.35883 24.8095 4.4175C25.1929 4.51887 26.1234 4.81177 27.4042 5.61227C29.2751 6.78162 36.7782 12.5143 36.7782 24.2209H-27.5425C-27.5425 42.6939 -15.6513 54.5525 -6.68571 60.156C2.73323 66.0429 13.744 68.6329 24.2203 68.6329V4.31224Z" fill="#FF7070" fill-opacity="0.5"/>
</g>
<mask id="mask5_2025_3009" style="mask-type:alpha" maskUnits="userSpaceOnUse" x="8" y="8" width="33" height="33">
<path d="M15.6989 15.6989C8.04358 23.3541 5.71639 33.4385 10.5009 38.223C15.2855 43.0076 25.3698 40.6804 33.0251 33.0251C40.6804 25.3698 43.0076 15.2854 38.223 10.5009C33.4385 5.71639 23.3541 8.04357 15.6989 15.6989Z" fill="white"/>
</mask>
<g mask="url(#mask5_2025_3009)">
<path d="M33.2416 15.4822C41.5194 23.7601 40.2676 33.1192 39.7715 35.269C39.4319 36.7407 38.9811 37.6058 38.7816 37.9486C38.6661 38.147 38.5753 38.273 38.5231 38.3405C38.47 38.4092 38.4405 38.4385 38.4394 38.4397L-7.04214 -7.04194C-14.45 0.365921 -20.4044 9.98313 -22.902 20.806C-25.2793 31.1079 -25.3024 47.9015 -12.2401 60.9639L33.2416 15.4822ZM38.4394 38.4397C38.4382 38.4408 38.409 38.4702 38.3403 38.5233C38.2727 38.5755 38.1468 38.6664 37.9484 38.7818C37.6055 38.9813 36.7405 39.4321 35.2688 39.7718C33.119 40.2678 23.7599 41.5196 15.482 33.2418L60.9636 -12.2398C47.9012 -25.3022 31.1077 -25.2791 20.8057 -22.9017C9.98284 -20.4041 0.365726 -14.4498 -7.04214 -7.04194L38.4394 38.4397ZM15.482 33.2418C7.20424 24.9639 8.45599 15.6048 8.95203 13.455C9.29171 11.9833 9.74252 11.1183 9.94203 10.7754C10.0574 10.577 10.1482 10.4511 10.2005 10.3835C10.2536 10.3148 10.283 10.2855 10.2841 10.2844L55.7657 55.766C63.1736 48.3581 69.1279 38.741 71.6255 27.9181C74.0029 17.6161 74.026 0.822519 60.9636 -12.2398L15.482 33.2418ZM10.2841 10.2844C10.2853 10.2833 10.3146 10.2538 10.3833 10.2007C10.4508 10.1485 10.5768 10.0577 10.7752 9.94225C11.118 9.74273 11.9831 9.29192 13.4548 8.95232C15.6046 8.4562 24.9636 7.20444 33.2416 15.4822L-12.2401 60.9639C0.822332 74.0262 17.6159 74.0031 27.9178 71.6258C38.7407 69.1282 48.3578 63.1738 55.7657 55.766L10.2841 10.2844Z" fill="#FFF970" fill-opacity="0.5"/>
</g>
<mask id="mask6_2025_3009" style="mask-type:alpha" maskUnits="userSpaceOnUse" x="8" y="8" width="33" height="33">
<path d="M33.0241 15.6988C25.3689 8.04357 15.2844 5.71637 10.4999 10.5009C5.7154 15.2854 8.04259 25.3699 15.6978 33.0251C23.3531 40.6803 33.4375 43.0075 38.222 38.223C43.0065 33.4385 40.6794 23.3541 33.0241 15.6988Z" fill="white"/>
</mask>
<g mask="url(#mask6_2025_3009)">
<path d="M33.2411 33.2418C24.9632 41.5196 15.6041 40.2678 13.4543 39.7718C11.9826 39.4321 11.1175 38.9813 10.7747 38.7818C10.5763 38.6664 10.4504 38.5756 10.3828 38.5233C10.3141 38.4702 10.2848 38.4408 10.2836 38.4397L55.7653 -7.04194C48.3574 -14.4498 38.7402 -20.4041 27.9174 -22.9017C17.6154 -25.2791 0.821844 -25.3022 -12.2406 -12.2398L33.2411 33.2418ZM10.2836 38.4397C10.2825 38.4385 10.2531 38.4092 10.2 38.3405C10.1478 38.2729 10.0569 38.147 9.94154 37.9486C9.74203 37.6058 9.29122 36.7407 8.95155 35.269C8.4555 33.1192 7.20375 23.7601 15.4815 15.4823L60.9631 60.9639C74.0255 47.9014 74.0024 31.1079 71.625 20.806C69.1274 9.98314 63.1731 0.365921 55.7653 -7.04194L10.2836 38.4397ZM15.4815 15.4823C23.7594 7.20444 33.1185 8.4562 35.2683 8.95233C36.74 9.29192 37.605 9.74273 37.9479 9.94225C38.1463 10.0577 38.2722 10.1485 38.3398 10.2007C38.4085 10.2538 38.4378 10.2833 38.4389 10.2844L-7.04262 55.766C0.36524 63.1738 9.98235 69.1282 20.8052 71.6257C31.1072 74.0031 47.9007 74.0262 60.9631 60.9639L15.4815 15.4823ZM38.4389 10.2844C38.44 10.2856 38.4695 10.3148 38.5226 10.3835C38.5749 10.4511 38.6657 10.577 38.7811 10.7754C38.9806 11.1182 39.4314 11.9833 39.771 13.455C40.2671 15.6048 41.5189 24.9639 33.2411 33.2418L-12.2406 -12.2398C-25.3029 0.822531 -25.2798 17.6161 -22.9025 27.9181C-20.4049 38.741 -14.4505 48.3581 -7.04262 55.766L38.4389 10.2844Z" fill="#70E5FF" fill-opacity="0.5"/>
</g>
<mask id="mask7_2025_3009" style="mask-type:alpha" maskUnits="userSpaceOnUse" x="11" y="4" width="26" height="40">
<path d="M11.9692 24.2209C11.9692 35.047 17.4544 43.8234 24.2208 43.8234C30.9871 43.8234 36.4723 35.047 36.4723 24.2209C36.4723 13.3948 30.9871 4.61841 24.2208 4.61841C17.4544 4.61841 11.9692 13.3948 11.9692 24.2209Z" fill="white"/>
</mask>
<g mask="url(#mask7_2025_3009)">
<path d="M24.2205 11.6629C35.9271 11.6629 41.6599 19.1659 42.8292 21.0369C43.6297 22.3177 43.9226 23.2482 44.024 23.6316C44.0826 23.8536 44.1075 24.0068 44.1183 24.0915C44.1293 24.1776 44.1292 24.2191 44.1292 24.2207H-20.1914C-20.1914 34.697 -17.6014 45.7078 -11.7146 55.1267C-6.11104 64.0924 5.74751 75.9836 24.2205 75.9836V11.6629ZM44.1292 24.2207C44.1292 24.2224 44.1293 24.2639 44.1183 24.35C44.1075 24.4348 44.0826 24.5879 44.024 24.8099C43.9226 25.1934 43.6297 26.1238 42.8292 27.4046C41.6599 29.2756 35.9271 36.7786 24.2205 36.7786V-27.542C5.7475 -27.542 -6.11105 -15.6509 -11.7146 -6.68521C-17.6014 2.73374 -20.1914 13.7445 -20.1914 24.2207H44.1292ZM24.2205 36.7786C12.5138 36.7786 6.78107 29.2756 5.61172 27.4046C4.81122 26.1238 4.51834 25.1934 4.41696 24.8099C4.3583 24.588 4.33346 24.4348 4.32263 24.35C4.31161 24.264 4.3117 24.2224 4.3117 24.2207H68.6323C68.6323 13.7445 66.0424 2.73373 60.1555 -6.68522C54.552 -15.6509 42.6934 -27.542 24.2205 -27.542V36.7786ZM4.3117 24.2207C4.3117 24.2191 4.31161 24.1776 4.32263 24.0915C4.33346 24.0068 4.3583 23.8536 4.41696 23.6316C4.51834 23.2482 4.81122 22.3177 5.61172 21.0369C6.78107 19.1659 12.5138 11.6629 24.2205 11.6629V75.9836C42.6934 75.9836 54.552 64.0924 60.1555 55.1267C66.0424 45.7078 68.6323 34.697 68.6323 24.2207H4.3117Z" fill="#B1EAD5" fill-opacity="0.5"/>
</g>
<mask id="mask8_2025_3009" style="mask-type:alpha" maskUnits="userSpaceOnUse" x="4" y="11" width="40" height="26">
<path d="M24.2206 11.9692C13.3945 11.9692 4.61816 17.4544 4.61816 24.2208C4.61816 30.9871 13.3945 36.4723 24.2206 36.4723C35.0469 36.4723 43.8232 30.9871 43.8232 24.2208C43.8232 17.4544 35.0469 11.9692 24.2206 11.9692Z" fill="white"/>
</mask>
<g mask="url(#mask8_2025_3009)">
<path d="M36.7782 24.2209C36.7782 35.9276 29.2751 41.6604 27.4042 42.8297C26.1234 43.6302 25.1929 43.9231 24.8095 44.0245C24.5875 44.0831 24.4343 44.108 24.3496 44.1188C24.2635 44.1298 24.2219 44.1297 24.2203 44.1297V-20.1909C13.744 -20.1909 2.73323 -17.6009 -6.68571 -11.7141C-15.6513 -6.11051 -27.5425 5.74804 -27.5425 24.2209H36.7782ZM24.2203 44.1297C24.2187 44.1297 24.1771 44.1298 24.091 44.1188C24.0063 44.108 23.8531 44.0831 23.6312 44.0245C23.2477 43.9231 22.3172 43.6302 21.0364 42.8297C19.1654 41.6604 11.6624 35.9276 11.6624 24.2209H75.9831C75.9831 5.74804 64.092 -6.11051 55.1263 -11.7141C45.7074 -17.6009 34.6966 -20.1909 24.2203 -20.1909V44.1297ZM11.6624 24.2209C11.6624 12.5143 19.1654 6.78162 21.0364 5.61227C22.3172 4.81177 23.2477 4.51887 23.6312 4.4175C23.8531 4.35883 24.0063 4.334 24.091 4.32317C24.1771 4.31215 24.2187 4.31224 24.2203 4.31224V68.6329C34.6966 68.6329 45.7074 66.0429 55.1263 60.156C64.092 54.5525 75.9831 42.6939 75.9831 24.2209H11.6624ZM24.2203 4.31224C24.2219 4.31224 24.2635 4.31215 24.3496 4.32317C24.4343 4.334 24.5875 4.35883 24.8095 4.4175C25.1929 4.51887 26.1234 4.81177 27.4042 5.61227C29.2751 6.78162 36.7782 12.5143 36.7782 24.2209H-27.5425C-27.5425 42.6939 -15.6513 54.5525 -6.68571 60.156C2.73323 66.0429 13.744 68.6329 24.2203 68.6329V4.31224Z" fill="#FF7070" fill-opacity="0.5"/>
</g>
<mask id="mask9_2025_3009" style="mask-type:alpha" maskUnits="userSpaceOnUse" x="8" y="8" width="33" height="33">
<path d="M15.6989 15.6989C8.04358 23.3541 5.71639 33.4385 10.5009 38.223C15.2855 43.0076 25.3698 40.6804 33.0251 33.0251C40.6804 25.3698 43.0076 15.2854 38.223 10.5009C33.4385 5.71639 23.3541 8.04357 15.6989 15.6989Z" fill="white"/>
</mask>
<g mask="url(#mask9_2025_3009)">
<path d="M33.2416 15.4822C41.5194 23.7601 40.2676 33.1192 39.7715 35.269C39.4319 36.7407 38.9811 37.6058 38.7816 37.9486C38.6661 38.147 38.5753 38.273 38.5231 38.3405C38.47 38.4092 38.4405 38.4385 38.4394 38.4397L-7.04214 -7.04194C-14.45 0.365921 -20.4044 9.98313 -22.902 20.806C-25.2793 31.1079 -25.3024 47.9015 -12.2401 60.9639L33.2416 15.4822ZM38.4394 38.4397C38.4382 38.4408 38.409 38.4702 38.3403 38.5233C38.2727 38.5755 38.1468 38.6664 37.9484 38.7818C37.6055 38.9813 36.7405 39.4321 35.2688 39.7718C33.119 40.2678 23.7599 41.5196 15.482 33.2418L60.9636 -12.2398C47.9012 -25.3022 31.1077 -25.2791 20.8057 -22.9017C9.98284 -20.4041 0.365726 -14.4498 -7.04214 -7.04194L38.4394 38.4397ZM15.482 33.2418C7.20424 24.9639 8.45599 15.6048 8.95203 13.455C9.29171 11.9833 9.74252 11.1183 9.94203 10.7754C10.0574 10.577 10.1482 10.4511 10.2005 10.3835C10.2536 10.3148 10.283 10.2855 10.2841 10.2844L55.7657 55.766C63.1736 48.3581 69.1279 38.741 71.6255 27.9181C74.0029 17.6161 74.026 0.822519 60.9636 -12.2398L15.482 33.2418ZM10.2841 10.2844C10.2853 10.2833 10.3146 10.2538 10.3833 10.2007C10.4508 10.1485 10.5768 10.0577 10.7752 9.94225C11.118 9.74273 11.9831 9.29192 13.4548 8.95232C15.6046 8.4562 24.9636 7.20444 33.2416 15.4822L-12.2401 60.9639C0.822332 74.0262 17.6159 74.0031 27.9178 71.6258C38.7407 69.1282 48.3578 63.1738 55.7657 55.766L10.2841 10.2844Z" fill="#FFF970" fill-opacity="0.5"/>
</g>
<mask id="mask10_2025_3009" style="mask-type:alpha" maskUnits="userSpaceOnUse" x="8" y="8" width="33" height="33">
<path d="M33.0241 15.6988C25.3689 8.04357 15.2844 5.71637 10.4999 10.5009C5.7154 15.2854 8.04259 25.3699 15.6978 33.0251C23.3531 40.6803 33.4375 43.0075 38.222 38.223C43.0065 33.4385 40.6794 23.3541 33.0241 15.6988Z" fill="white"/>
</mask>
<g mask="url(#mask10_2025_3009)">
<path d="M33.2411 33.2418C24.9632 41.5196 15.6041 40.2678 13.4543 39.7718C11.9826 39.4321 11.1175 38.9813 10.7747 38.7818C10.5763 38.6664 10.4504 38.5756 10.3828 38.5233C10.3141 38.4702 10.2848 38.4408 10.2836 38.4397L55.7653 -7.04194C48.3574 -14.4498 38.7402 -20.4041 27.9174 -22.9017C17.6154 -25.2791 0.821844 -25.3022 -12.2406 -12.2398L33.2411 33.2418ZM10.2836 38.4397C10.2825 38.4385 10.2531 38.4092 10.2 38.3405C10.1478 38.2729 10.0569 38.147 9.94154 37.9486C9.74203 37.6058 9.29122 36.7407 8.95155 35.269C8.4555 33.1192 7.20375 23.7601 15.4815 15.4823L60.9631 60.9639C74.0255 47.9014 74.0024 31.1079 71.625 20.806C69.1274 9.98314 63.1731 0.365921 55.7653 -7.04194L10.2836 38.4397ZM15.4815 15.4823C23.7594 7.20444 33.1185 8.4562 35.2683 8.95233C36.74 9.29192 37.605 9.74273 37.9479 9.94225C38.1463 10.0577 38.2722 10.1485 38.3398 10.2007C38.4085 10.2538 38.4378 10.2833 38.4389 10.2844L-7.04262 55.766C0.36524 63.1738 9.98235 69.1282 20.8052 71.6257C31.1072 74.0031 47.9007 74.0262 60.9631 60.9639L15.4815 15.4823ZM38.4389 10.2844C38.44 10.2856 38.4695 10.3148 38.5226 10.3835C38.5749 10.4511 38.6657 10.577 38.7811 10.7754C38.9806 11.1182 39.4314 11.9833 39.771 13.455C40.2671 15.6048 41.5189 24.9639 33.2411 33.2418L-12.2406 -12.2398C-25.3029 0.822531 -25.2798 17.6161 -22.9025 27.9181C-20.4049 38.741 -14.4505 48.3581 -7.04262 55.766L38.4389 10.2844Z" fill="#70E5FF" fill-opacity="0.5"/>
</g>
<mask id="mask11_2025_3009" style="mask-type:alpha" maskUnits="userSpaceOnUse" x="11" y="4" width="26" height="40">
<path d="M11.9692 24.2209C11.9692 35.047 17.4544 43.8234 24.2208 43.8234C30.9871 43.8234 36.4723 35.047 36.4723 24.2209C36.4723 13.3948 30.9871 4.61841 24.2208 4.61841C17.4544 4.61841 11.9692 13.3948 11.9692 24.2209Z" fill="white"/>
</mask>
<g mask="url(#mask11_2025_3009)">
<path d="M24.2205 11.6629C35.9271 11.6629 41.6599 19.1659 42.8292 21.0369C43.6297 22.3177 43.9226 23.2482 44.024 23.6316C44.0826 23.8536 44.1075 24.0068 44.1183 24.0915C44.1293 24.1776 44.1292 24.2191 44.1292 24.2207H-20.1914C-20.1914 34.697 -17.6014 45.7078 -11.7146 55.1267C-6.11104 64.0924 5.74751 75.9836 24.2205 75.9836V11.6629ZM44.1292 24.2207C44.1292 24.2224 44.1293 24.2639 44.1183 24.35C44.1075 24.4348 44.0826 24.5879 44.024 24.8099C43.9226 25.1934 43.6297 26.1238 42.8292 27.4046C41.6599 29.2756 35.9271 36.7786 24.2205 36.7786V-27.542C5.7475 -27.542 -6.11105 -15.6509 -11.7146 -6.68521C-17.6014 2.73374 -20.1914 13.7445 -20.1914 24.2207H44.1292ZM24.2205 36.7786C12.5138 36.7786 6.78107 29.2756 5.61172 27.4046C4.81122 26.1238 4.51834 25.1934 4.41696 24.8099C4.3583 24.588 4.33346 24.4348 4.32263 24.35C4.31161 24.264 4.3117 24.2224 4.3117 24.2207H68.6323C68.6323 13.7445 66.0424 2.73373 60.1555 -6.68522C54.552 -15.6509 42.6934 -27.542 24.2205 -27.542V36.7786ZM4.3117 24.2207C4.3117 24.2191 4.31161 24.1776 4.32263 24.0915C4.33346 24.0068 4.3583 23.8536 4.41696 23.6316C4.51834 23.2482 4.81122 22.3177 5.61172 21.0369C6.78107 19.1659 12.5138 11.6629 24.2205 11.6629V75.9836C42.6934 75.9836 54.552 64.0924 60.1555 55.1267C66.0424 45.7078 68.6323 34.697 68.6323 24.2207H4.3117Z" fill="#B1EAD5" fill-opacity="0.5"/>
</g>
<mask id="mask12_2025_3009" style="mask-type:alpha" maskUnits="userSpaceOnUse" x="4" y="11" width="40" height="26">
<path d="M24.2206 11.9692C13.3945 11.9692 4.61816 17.4544 4.61816 24.2208C4.61816 30.9871 13.3945 36.4723 24.2206 36.4723C35.0469 36.4723 43.8232 30.9871 43.8232 24.2208C43.8232 17.4544 35.0469 11.9692 24.2206 11.9692Z" fill="white"/>
</mask>
<g mask="url(#mask12_2025_3009)">
<path d="M36.7782 24.2209C36.7782 35.9276 29.2751 41.6604 27.4042 42.8297C26.1234 43.6302 25.1929 43.9231 24.8095 44.0245C24.5875 44.0831 24.4343 44.108 24.3496 44.1188C24.2635 44.1298 24.2219 44.1297 24.2203 44.1297V-20.1909C13.744 -20.1909 2.73323 -17.6009 -6.68571 -11.7141C-15.6513 -6.11051 -27.5425 5.74804 -27.5425 24.2209H36.7782ZM24.2203 44.1297C24.2187 44.1297 24.1771 44.1298 24.091 44.1188C24.0063 44.108 23.8531 44.0831 23.6312 44.0245C23.2477 43.9231 22.3172 43.6302 21.0364 42.8297C19.1654 41.6604 11.6624 35.9276 11.6624 24.2209H75.9831C75.9831 5.74804 64.092 -6.11051 55.1263 -11.7141C45.7074 -17.6009 34.6966 -20.1909 24.2203 -20.1909V44.1297ZM11.6624 24.2209C11.6624 12.5143 19.1654 6.78162 21.0364 5.61227C22.3172 4.81177 23.2477 4.51887 23.6312 4.4175C23.8531 4.35883 24.0063 4.334 24.091 4.32317C24.1771 4.31215 24.2187 4.31224 24.2203 4.31224V68.6329C34.6966 68.6329 45.7074 66.0429 55.1263 60.156C64.092 54.5525 75.9831 42.6939 75.9831 24.2209H11.6624ZM24.2203 4.31224C24.2219 4.31224 24.2635 4.31215 24.3496 4.32317C24.4343 4.334 24.5875 4.35883 24.8095 4.4175C25.1929 4.51887 26.1234 4.81177 27.4042 5.61227C29.2751 6.78162 36.7782 12.5143 36.7782 24.2209H-27.5425C-27.5425 42.6939 -15.6513 54.5525 -6.68571 60.156C2.73323 66.0429 13.744 68.6329 24.2203 68.6329V4.31224Z" fill="#FF7070" fill-opacity="0.5"/>
</g>
<mask id="mask13_2025_3009" style="mask-type:alpha" maskUnits="userSpaceOnUse" x="8" y="8" width="33" height="33">
<path d="M15.6989 15.6989C8.04358 23.3541 5.71639 33.4385 10.5009 38.223C15.2855 43.0076 25.3698 40.6804 33.0251 33.0251C40.6804 25.3698 43.0076 15.2854 38.223 10.5009C33.4385 5.71639 23.3541 8.04357 15.6989 15.6989Z" fill="white"/>
</mask>
<g mask="url(#mask13_2025_3009)">
<path d="M33.2416 15.4822C41.5194 23.7601 40.2676 33.1192 39.7715 35.269C39.4319 36.7407 38.9811 37.6058 38.7816 37.9486C38.6661 38.147 38.5753 38.273 38.5231 38.3405C38.47 38.4092 38.4405 38.4385 38.4394 38.4397L-7.04214 -7.04194C-14.45 0.365921 -20.4044 9.98313 -22.902 20.806C-25.2793 31.1079 -25.3024 47.9015 -12.2401 60.9639L33.2416 15.4822ZM38.4394 38.4397C38.4382 38.4408 38.409 38.4702 38.3403 38.5233C38.2727 38.5755 38.1468 38.6664 37.9484 38.7818C37.6055 38.9813 36.7405 39.4321 35.2688 39.7718C33.119 40.2678 23.7599 41.5196 15.482 33.2418L60.9636 -12.2398C47.9012 -25.3022 31.1077 -25.2791 20.8057 -22.9017C9.98284 -20.4041 0.365726 -14.4498 -7.04214 -7.04194L38.4394 38.4397ZM15.482 33.2418C7.20424 24.9639 8.45599 15.6048 8.95203 13.455C9.29171 11.9833 9.74252 11.1183 9.94203 10.7754C10.0574 10.577 10.1482 10.4511 10.2005 10.3835C10.2536 10.3148 10.283 10.2855 10.2841 10.2844L55.7657 55.766C63.1736 48.3581 69.1279 38.741 71.6255 27.9181C74.0029 17.6161 74.026 0.822519 60.9636 -12.2398L15.482 33.2418ZM10.2841 10.2844C10.2853 10.2833 10.3146 10.2538 10.3833 10.2007C10.4508 10.1485 10.5768 10.0577 10.7752 9.94225C11.118 9.74273 11.9831 9.29192 13.4548 8.95232C15.6046 8.4562 24.9636 7.20444 33.2416 15.4822L-12.2401 60.9639C0.822332 74.0262 17.6159 74.0031 27.9178 71.6258C38.7407 69.1282 48.3578 63.1738 55.7657 55.766L10.2841 10.2844Z" fill="#FFF970" fill-opacity="0.5"/>
</g>
<mask id="mask14_2025_3009" style="mask-type:alpha" maskUnits="userSpaceOnUse" x="8" y="8" width="33" height="33">
<path d="M33.0241 15.6988C25.3689 8.04357 15.2844 5.71637 10.4999 10.5009C5.7154 15.2854 8.04259 25.3699 15.6978 33.0251C23.3531 40.6803 33.4375 43.0075 38.222 38.223C43.0065 33.4385 40.6794 23.3541 33.0241 15.6988Z" fill="white"/>
</mask>
<g mask="url(#mask14_2025_3009)">
<path d="M33.2411 33.2418C24.9632 41.5196 15.6041 40.2678 13.4543 39.7718C11.9826 39.4321 11.1175 38.9813 10.7747 38.7818C10.5763 38.6664 10.4504 38.5756 10.3828 38.5233C10.3141 38.4702 10.2848 38.4408 10.2836 38.4397L55.7653 -7.04194C48.3574 -14.4498 38.7402 -20.4041 27.9174 -22.9017C17.6154 -25.2791 0.821844 -25.3022 -12.2406 -12.2398L33.2411 33.2418ZM10.2836 38.4397C10.2825 38.4385 10.2531 38.4092 10.2 38.3405C10.1478 38.2729 10.0569 38.147 9.94154 37.9486C9.74203 37.6058 9.29122 36.7407 8.95155 35.269C8.4555 33.1192 7.20375 23.7601 15.4815 15.4823L60.9631 60.9639C74.0255 47.9014 74.0024 31.1079 71.625 20.806C69.1274 9.98314 63.1731 0.365921 55.7653 -7.04194L10.2836 38.4397ZM15.4815 15.4823C23.7594 7.20444 33.1185 8.4562 35.2683 8.95233C36.74 9.29192 37.605 9.74273 37.9479 9.94225C38.1463 10.0577 38.2722 10.1485 38.3398 10.2007C38.4085 10.2538 38.4378 10.2833 38.4389 10.2844L-7.04262 55.766C0.36524 63.1738 9.98235 69.1282 20.8052 71.6257C31.1072 74.0031 47.9007 74.0262 60.9631 60.9639L15.4815 15.4823ZM38.4389 10.2844C38.44 10.2856 38.4695 10.3148 38.5226 10.3835C38.5749 10.4511 38.6657 10.577 38.7811 10.7754C38.9806 11.1182 39.4314 11.9833 39.771 13.455C40.2671 15.6048 41.5189 24.9639 33.2411 33.2418L-12.2406 -12.2398C-25.3029 0.822531 -25.2798 17.6161 -22.9025 27.9181C-20.4049 38.741 -14.4505 48.3581 -7.04262 55.766L38.4389 10.2844Z" fill="#70E5FF" fill-opacity="0.5"/>
</g>
<mask id="mask15_2025_3009" style="mask-type:alpha" maskUnits="userSpaceOnUse" x="11" y="4" width="26" height="40">
<path d="M11.9692 24.2209C11.9692 35.047 17.4544 43.8234 24.2208 43.8234C30.9871 43.8234 36.4723 35.047 36.4723 24.2209C36.4723 13.3948 30.9871 4.61841 24.2208 4.61841C17.4544 4.61841 11.9692 13.3948 11.9692 24.2209Z" fill="white"/>
</mask>
<g mask="url(#mask15_2025_3009)">
<path d="M24.2205 11.6629C35.9271 11.6629 41.6599 19.1659 42.8292 21.0369C43.6297 22.3177 43.9226 23.2482 44.024 23.6316C44.0826 23.8536 44.1075 24.0068 44.1183 24.0915C44.1293 24.1776 44.1292 24.2191 44.1292 24.2207H-20.1914C-20.1914 34.697 -17.6014 45.7078 -11.7146 55.1267C-6.11104 64.0924 5.74751 75.9836 24.2205 75.9836V11.6629ZM44.1292 24.2207C44.1292 24.2224 44.1293 24.2639 44.1183 24.35C44.1075 24.4348 44.0826 24.5879 44.024 24.8099C43.9226 25.1934 43.6297 26.1238 42.8292 27.4046C41.6599 29.2756 35.9271 36.7786 24.2205 36.7786V-27.542C5.7475 -27.542 -6.11105 -15.6509 -11.7146 -6.68521C-17.6014 2.73374 -20.1914 13.7445 -20.1914 24.2207H44.1292ZM24.2205 36.7786C12.5138 36.7786 6.78107 29.2756 5.61172 27.4046C4.81122 26.1238 4.51834 25.1934 4.41696 24.8099C4.3583 24.588 4.33346 24.4348 4.32263 24.35C4.31161 24.264 4.3117 24.2224 4.3117 24.2207H68.6323C68.6323 13.7445 66.0424 2.73373 60.1555 -6.68522C54.552 -15.6509 42.6934 -27.542 24.2205 -27.542V36.7786ZM4.3117 24.2207C4.3117 24.2191 4.31161 24.1776 4.32263 24.0915C4.33346 24.0068 4.3583 23.8536 4.41696 23.6316C4.51834 23.2482 4.81122 22.3177 5.61172 21.0369C6.78107 19.1659 12.5138 11.6629 24.2205 11.6629V75.9836C42.6934 75.9836 54.552 64.0924 60.1555 55.1267C66.0424 45.7078 68.6323 34.697 68.6323 24.2207H4.3117Z" fill="#B1EAD5" fill-opacity="0.5"/>
</g>
<path d="M83.8412 32.5574V44.8496H79.6271C79.608 44.6491 79.573 44.4486 79.573 44.248C79.573 37.7391 79.5507 31.2334 79.5762 24.7244C79.5953 19.9629 81.6703 16.363 86.0662 14.4342C93.1574 11.3246 101.175 15.4623 102.05 23.2253C102.894 30.7241 97.2792 36.3514 89.6912 35.5525C87.759 35.3488 86.3783 34.6008 83.8412 32.5574ZM97.8429 24.5621C97.8646 20.6121 94.8316 17.4961 90.9388 17.4738C86.9542 17.4516 83.8888 20.5134 83.8445 24.5621C83.8033 28.3942 86.9163 31.5834 90.7324 31.628C94.7042 31.6725 97.8171 28.5756 97.8429 24.5621Z" fill="black"/>
<path d="M155.908 35.0686H151.885V31.7012C151.013 32.4969 150.249 33.4327 149.282 34.0438C143.721 37.5608 136.601 35.0782 134.112 28.8144C131.263 21.6433 136.05 14.0332 143.749 13.4634C150.268 12.9828 155.87 17.4643 155.953 24.6575C155.991 27.9613 155.959 31.2651 155.959 34.569C155.959 34.7217 155.931 34.8745 155.911 35.0655L155.908 35.0686ZM144.64 17.4419C140.742 17.4324 137.562 20.5261 137.603 24.4952C137.645 28.4356 140.525 31.5707 144.619 31.5803C148.626 31.5898 151.649 28.5565 151.64 24.5207C151.634 20.4403 148.59 17.4515 144.64 17.4452V17.4419Z" fill="black"/>
<path d="M60.5685 29.1039C60.7977 29.4253 60.9759 29.715 61.1923 29.9727C62.8919 32.0352 66.3644 32.6464 68.707 31.3223C69.6206 30.8067 70.1075 30.0587 70.0725 29.002C70.0375 27.9771 69.3691 27.3883 68.5034 27.121C66.8164 26.5989 65.0849 26.217 63.3885 25.7172C62.4527 25.4404 61.5169 25.1189 60.6481 24.686C57.096 22.9132 57.2201 17.9479 59.6741 15.7549C62.3509 13.3646 65.4764 13.0464 68.8152 13.9216C70.9828 14.4881 72.6538 15.7327 73.7742 17.7506C72.6888 18.3649 71.6353 18.9633 70.5849 19.5585C68.6434 17.0535 65.7629 16.3724 63.3821 17.8238C61.7971 18.7914 61.7461 20.8602 63.4203 21.6146C64.8717 22.2671 66.495 22.5344 68.0227 23.0341C69.3214 23.4606 70.6454 23.8648 71.8644 24.476C74.8754 25.9847 74.9709 30.3515 73.1598 32.5572C71.6512 34.3938 69.6683 35.2818 67.3861 35.5077C64.3465 35.8069 61.4406 35.4122 59.1043 33.1875C58.4264 32.5414 57.9044 31.7329 57.2583 30.9404C58.4327 30.291 59.4863 29.7054 60.5653 29.107L60.5685 29.1039Z" fill="black"/>
<path d="M173.343 30.8705C174.41 30.2785 175.466 29.6961 176.573 29.0817C177.331 30.53 178.435 31.5199 180.018 31.819C181.714 32.1405 183.417 32.1691 184.91 31.1283C186.58 29.9634 186.44 27.9455 184.56 27.1879C183.101 26.5991 181.514 26.3413 179.998 25.8862C178.862 25.5456 177.694 25.2337 176.637 24.7149C173.597 23.2189 173.368 19.8005 174.371 17.5471C175.224 15.6278 176.78 14.4916 178.757 13.9473C182.143 13.0147 185.323 13.403 188.086 15.717C188.722 16.2485 189.193 16.9742 189.805 17.6871C188.63 18.3555 187.56 18.9634 186.497 19.565C184.693 17.0983 181.707 16.3726 179.368 17.7762C178.54 18.2728 178.123 18.9858 178.123 19.9279C178.123 20.8446 178.71 21.427 179.48 21.7103C180.714 22.1622 182.001 22.4837 183.264 22.8593C184.476 23.2221 185.721 23.5117 186.899 23.9637C191.211 25.6252 191.304 31.1411 187.993 33.6587C185.575 35.4984 182.847 35.8326 179.938 35.4316C177.118 35.0401 174.915 33.7224 173.493 31.2111C173.442 31.122 173.406 31.0201 173.339 30.8674L173.343 30.8705Z" fill="black"/>
<path d="M163.043 4.21387H167.229V35.0463H163.043V4.21387Z" fill="black"/>
<path d="M123.465 35.0656H119.283C119.264 34.8491 119.226 34.6232 119.226 34.3971C119.222 30.2435 119.206 26.0931 119.226 21.9395C119.247 18.1041 121.199 15.1791 124.538 13.9919C126.629 13.247 128.745 13.3585 130.856 13.9823C131.364 14.1319 131.556 14.3992 131.531 14.9531C131.48 16.0862 131.514 17.2193 131.514 18.2696C130.413 18.0468 129.35 17.7062 128.268 17.6362C125.62 17.4644 123.735 19.1449 123.567 21.7994C123.459 23.5118 123.477 25.2337 123.465 26.9524C123.449 29.3587 123.462 31.765 123.462 34.1712V35.0656H123.465Z" fill="black"/>
<path d="M107.926 13.9248H112.092V35.0559H107.926V13.9248Z" fill="black"/>
<path d="M109.998 9.68529C108.444 9.67892 107.181 8.39618 107.2 6.83978C107.219 5.34701 108.498 4.05477 109.985 4.0325C111.477 4.01022 112.783 5.36293 112.767 6.9098C112.751 8.45989 111.526 9.68843 109.998 9.68206V9.68529Z" fill="black"/>
</g>
<defs>
<clipPath id="clip0_2025_3009">
<rect width="190.323" height="50" fill="white"/>
</clipPath>
</defs>
</svg>
